<?xml version="1.0" encoding="UTF-8" standalone="no"?>
<!DOCTYPE svg PUBLIC "-//W3C//DTD SVG 1.1//EN"
 "http://www.w3.org/Graphics/SVG/1.1/DTD/svg11.dtd">
<!-- Generated by graphviz version 2.44.0 (20200518.1210)
 -->
<!-- Title: G Pages: 1 -->
<svg width="962pt" height="411pt"
 viewBox="0.00 0.00 962.00 411.00" xmlns="http://www.w3.org/2000/svg" xmlns:xlink="http://www.w3.org/1999/xlink">
<g id="graph0" class="graph" transform="scale(1 1) rotate(0) translate(4 407)">
<title>G</title>
<polygon fill="white" stroke="transparent" points="-4,4 -4,-407 958,-407 958,4 -4,4"/>
<!-- A1 -->
<g id="node1" class="node">
<title>A1</title>
<path fill="none" stroke="#104e8b" d="M537,-403C537,-403 417,-403 417,-403 411,-403 405,-397 405,-391 405,-391 405,-325 405,-325 405,-319 411,-313 417,-313 417,-313 537,-313 537,-313 543,-313 549,-319 549,-325 549,-325 549,-391 549,-391 549,-397 543,-403 537,-403"/>
<text text-anchor="start" x="419.99" y="-376.8" font-family="Arial" font-weight="bold" font-size="18.00">Departamento</text>
<text text-anchor="start" x="433.89" y="-347.6" font-family="Arial" font-size="16.00">Recruitment</text>
<text text-anchor="start" x="454.76" y="-328.4" font-family="Arial" font-size="16.00">50000</text>
</g>
<!-- B2 -->
<g id="node2" class="node">
<title>B2</title>
<path fill="none" stroke="#104e8b" d="M375,-277C375,-277 255,-277 255,-277 249,-277 243,-271 243,-265 243,-265 243,-214 243,-214 243,-208 249,-202 255,-202 255,-202 375,-202 375,-202 381,-202 387,-208 387,-214 387,-214 387,-265 387,-265 387,-271 381,-277 375,-277"/>
<text text-anchor="start" x="293.71" y="-253.9" font-family="Arial" font-weight="bold" font-size="14.00">Puesto</text>
<text text-anchor="start" x="300.83" y="-229.7" font-family="Arial" font-size="12.00">JEFE</text>
<text text-anchor="start" x="298.82" y="-215.3" font-family="Arial" font-size="12.00">30000</text>
</g>
<!-- A1&#45;&gt;B2 -->
<g id="edge1" class="edge">
<title>A1&#45;&gt;B2:n</title>
<path fill="none" stroke="#142b30" stroke-width="2" d="M404.53,-349.07C364.09,-340.44 320.79,-322.42 315.53,-284.79"/>
<polygon fill="#142b30" stroke="#142b30" stroke-width="2" points="315,-277 318.88,-284.25 315.75,-280.71 316.01,-284.45 315.51,-284.48 315.01,-284.52 314.76,-280.78 312.14,-284.71 315,-277 315,-277"/>
</g>
<!-- B7 -->
<g id="node8" class="node">
<title>B7</title>
<path fill="none" stroke="#104e8b" d="M699,-277C699,-277 579,-277 579,-277 573,-277 567,-271 567,-265 567,-265 567,-214 567,-214 567,-208 573,-202 579,-202 579,-202 699,-202 699,-202 705,-202 711,-208 711,-214 711,-214 711,-265 711,-265 711,-271 705,-277 699,-277"/>
<text text-anchor="start" x="617.71" y="-253.9" font-family="Arial" font-weight="bold" font-size="14.00">Puesto</text>
<text text-anchor="start" x="619.16" y="-229.7" font-family="Arial" font-size="12.00">Trainee</text>
<text text-anchor="start" x="622.82" y="-215.3" font-family="Arial" font-size="12.00">10000</text>
</g>
<!-- A1&#45;&gt;B7 -->
<g id="edge7" class="edge">
<title>A1&#45;&gt;B7:n</title>
<path fill="none" stroke="#142b30" stroke-width="2" d="M549.47,-349.07C589.91,-340.44 633.21,-322.42 638.47,-284.79"/>
<polygon fill="#142b30" stroke="#142b30" stroke-width="2" points="639,-277 641.86,-284.71 639.24,-280.78 638.99,-284.52 638.49,-284.48 637.99,-284.45 638.25,-280.71 635.12,-284.25 639,-277 639,-277"/>
</g>
<!-- C3 -->
<g id="node3" class="node">
<title>C3</title>
<path fill="none" stroke="#104e8b" d="M132,-166C132,-166 12,-166 12,-166 6,-166 0,-160 0,-154 0,-154 0,-96 0,-96 0,-90 6,-84 12,-84 12,-84 132,-84 132,-84 138,-84 144,-90 144,-96 144,-96 144,-154 144,-154 144,-160 138,-166 132,-166"/>
<text text-anchor="start" x="43" y="-150.2" font-family="Arial" font-weight="bold" font-size="12.00">Categorias</text>
<text text-anchor="start" x="43" y="-136" font-family="Arial" font-weight="bold" font-size="10.00">&#45; </text>
<text text-anchor="start" x="49.11" y="-136" font-family="Arial" font-size="10.00">dinero</text>
<text text-anchor="start" x="43" y="-122" font-family="Arial" font-weight="bold" font-size="10.00">&#45; </text>
<text text-anchor="start" x="49.11" y="-122" font-family="Arial" font-size="10.00">exito</text>
<text text-anchor="start" x="43" y="-108" font-family="Arial" font-weight="bold" font-size="10.00">&#45; </text>
<text text-anchor="start" x="49.11" y="-108" font-family="Arial" font-size="10.00">humano</text>
<text text-anchor="start" x="43" y="-94" font-family="Arial" font-weight="bold" font-size="10.00">&#45; </text>
<text text-anchor="start" x="49.11" y="-94" font-family="Arial" font-size="10.00">social</text>
</g>
<!-- B2&#45;&gt;C3 -->
<g id="edge2" class="edge">
<title>B2&#45;&gt;C3:n</title>
<path fill="none" stroke="#142b30" stroke-width="2" d="M242.75,-231.04C176.44,-222.28 86.56,-204.84 73.59,-173.75"/>
<polygon fill="#142b30" stroke="#142b30" stroke-width="2" points="72,-166 76.81,-172.67 73.24,-169.57 73.99,-173.25 73.5,-173.35 73.02,-173.45 72.26,-169.77 70.2,-174.02 72,-166 72,-166"/>
</g>
<!-- D4 -->
<g id="node4" class="node">
<title>D4</title>
<path fill="none" stroke="#104e8b" d="M294,-145C294,-145 174,-145 174,-145 168,-145 162,-139 162,-133 162,-133 162,-117 162,-117 162,-111 168,-105 174,-105 174,-105 294,-105 294,-105 300,-105 306,-111 306,-117 306,-117 306,-133 306,-133 306,-139 300,-145 294,-145"/>
<text text-anchor="start" x="203" y="-129.2" font-family="Arial" font-weight="bold" font-size="12.00">Requisito</text>
<text text-anchor="start" x="202.83" y="-114" font-family="Arial" font-size="10.00">Gusto musical</text>
</g>
<!-- B2&#45;&gt;D4 -->
<g id="edge3" class="edge">
<title>B2&#45;&gt;D4:n</title>
<path fill="none" stroke="#142b30" stroke-width="2" d="M262.33,-201.99C248.67,-188.65 237.05,-172.2 234.51,-153.54"/>
<polygon fill="#142b30" stroke="#142b30" stroke-width="2" points="234,-146 237.88,-153.25 234.75,-149.71 235.01,-153.45 234.51,-153.48 234.01,-153.52 233.76,-149.78 231.14,-153.71 234,-146 234,-146"/>
</g>
<!-- D6 -->
<g id="node6" class="node">
<title>D6</title>
<path fill="none" stroke="#104e8b" d="M456,-145C456,-145 336,-145 336,-145 330,-145 324,-139 324,-133 324,-133 324,-117 324,-117 324,-111 330,-105 336,-105 336,-105 456,-105 456,-105 462,-105 468,-111 468,-117 468,-117 468,-133 468,-133 468,-139 462,-145 456,-145"/>
<text text-anchor="start" x="371" y="-129.2" font-family="Arial" font-weight="bold" font-size="12.00">Requisito</text>
<text text-anchor="start" x="371" y="-114" font-family="Arial" font-size="10.00">Pasaporte</text>
</g>
<!-- B2&#45;&gt;D6 -->
<g id="edge5" class="edge">
<title>B2&#45;&gt;D6:n</title>
<path fill="none" stroke="#142b30" stroke-width="2" d="M367.67,-201.99C381.33,-188.65 392.95,-172.2 395.49,-153.54"/>
<polygon fill="#142b30" stroke="#142b30" stroke-width="2" points="396,-146 398.86,-153.71 396.24,-149.78 395.99,-153.52 395.49,-153.48 394.99,-153.45 395.25,-149.71 392.12,-153.25 396,-146 396,-146"/>
</g>
<!-- E5 -->
<g id="node5" class="node">
<title>E5</title>
<path fill="none" stroke="#104e8b" d="M294,-48C294,-48 174,-48 174,-48 168,-48 162,-42 162,-36 162,-36 162,-12 162,-12 162,-6 168,0 174,0 174,0 294,0 294,0 300,0 306,-6 306,-12 306,-12 306,-36 306,-36 306,-42 300,-48 294,-48"/>
<text text-anchor="start" x="217.61" y="-35.8" font-family="Arial" font-weight="bold" font-size="8.00">Formatos</text>
<text text-anchor="start" x="218" y="-26.6" font-family="Arial" font-weight="bold" font-size="6.00">&#45; </text>
<text text-anchor="start" x="221.66" y="-26.6" font-family="Arial" font-size="6.00">mkv</text>
<text text-anchor="start" x="218" y="-17.6" font-family="Arial" font-weight="bold" font-size="6.00">&#45; </text>
<text text-anchor="start" x="221.66" y="-17.6" font-family="Arial" font-size="6.00">mp3</text>
<text text-anchor="start" x="218" y="-8.6" font-family="Arial" font-weight="bold" font-size="6.00">&#45; </text>
<text text-anchor="start" x="221.66" y="-8.6" font-family="Arial" font-size="6.00">mp4</text>
</g>
<!-- D4&#45;&gt;E5 -->
<g id="edge4" class="edge">
<title>D4&#45;&gt;E5:n</title>
<path fill="none" stroke="#142b30" stroke-width="2" d="M234,-104.95C234,-91.62 234,-73.17 234,-55.85"/>
<polygon fill="#142b30" stroke="#142b30" stroke-width="2" points="234,-48 237.38,-55.5 234.5,-51.75 234.5,-55.5 234,-55.5 233.5,-55.5 233.5,-51.75 230.63,-55.5 234,-48 234,-48"/>
</g>
<!-- E7 -->
<g id="node7" class="node">
<title>E7</title>
<path fill="none" stroke="#104e8b" d="M456,-43.5C456,-43.5 336,-43.5 336,-43.5 330,-43.5 324,-37.5 324,-31.5 324,-31.5 324,-16.5 324,-16.5 324,-10.5 330,-4.5 336,-4.5 336,-4.5 456,-4.5 456,-4.5 462,-4.5 468,-10.5 468,-16.5 468,-16.5 468,-31.5 468,-31.5 468,-37.5 462,-43.5 456,-43.5"/>
<text text-anchor="start" x="379.61" y="-30.8" font-family="Arial" font-weight="bold" font-size="8.00">Formatos</text>
<text text-anchor="start" x="380" y="-21.6" font-family="Arial" font-weight="bold" font-size="6.00">&#45; </text>
<text text-anchor="start" x="383.66" y="-21.6" font-family="Arial" font-size="6.00">pdf</text>
<text text-anchor="start" x="380" y="-12.6" font-family="Arial" font-weight="bold" font-size="6.00">&#45; </text>
<text text-anchor="start" x="383.66" y="-12.6" font-family="Arial" font-size="6.00">png</text>
</g>
<!-- D6&#45;&gt;E7 -->
<g id="edge6" class="edge">
<title>D6&#45;&gt;E7:n</title>
<path fill="none" stroke="#142b30" stroke-width="2" d="M396,-104.84C396,-90.84 396,-71.17 396,-52.78"/>
<polygon fill="#142b30" stroke="#142b30" stroke-width="2" points="396,-45 399.38,-52.5 396.5,-48.75 396.5,-52.5 396,-52.5 395.5,-52.5 395.5,-48.75 392.63,-52.5 396,-45 396,-45"/>
</g>
<!-- C8 -->
<g id="node9" class="node">
<title>C8</title>
<path fill="none" stroke="#104e8b" d="M618,-166C618,-166 498,-166 498,-166 492,-166 486,-160 486,-154 486,-154 486,-96 486,-96 486,-90 492,-84 498,-84 498,-84 618,-84 618,-84 624,-84 630,-90 630,-96 630,-96 630,-154 630,-154 630,-160 624,-166 618,-166"/>
<text text-anchor="start" x="529" y="-150.2" font-family="Arial" font-weight="bold" font-size="12.00">Categorias</text>
<text text-anchor="start" x="529" y="-136" font-family="Arial" font-weight="bold" font-size="10.00">&#45; </text>
<text text-anchor="start" x="535.11" y="-136" font-family="Arial" font-size="10.00">danza</text>
<text text-anchor="start" x="529" y="-122" font-family="Arial" font-weight="bold" font-size="10.00">&#45; </text>
<text text-anchor="start" x="535.11" y="-122" font-family="Arial" font-size="10.00">dinero</text>
<text text-anchor="start" x="529" y="-108" font-family="Arial" font-weight="bold" font-size="10.00">&#45; </text>
<text text-anchor="start" x="535.11" y="-108" font-family="Arial" font-size="10.00">fama</text>
<text text-anchor="start" x="529" y="-94" font-family="Arial" font-weight="bold" font-size="10.00">&#45; </text>
<text text-anchor="start" x="535.11" y="-94" font-family="Arial" font-size="10.00">musica</text>
</g>
<!-- B7&#45;&gt;C8 -->
<g id="edge8" class="edge">
<title>B7&#45;&gt;C8:n</title>
<path fill="none" stroke="#142b30" stroke-width="2" d="M574.39,-201.85C566.57,-193.78 560.64,-184.38 558.69,-173.64"/>
<polygon fill="#142b30" stroke="#142b30" stroke-width="2" points="558,-166 562.03,-173.17 558.83,-169.69 559.17,-173.42 558.67,-173.47 558.17,-173.51 557.84,-169.78 555.31,-173.77 558,-166 558,-166"/>
</g>
<!-- D9 -->
<g id="node10" class="node">
<title>D9</title>
<path fill="none" stroke="#104e8b" d="M780,-145C780,-145 660,-145 660,-145 654,-145 648,-139 648,-133 648,-133 648,-117 648,-117 648,-111 654,-105 660,-105 660,-105 780,-105 780,-105 786,-105 792,-111 792,-117 792,-117 792,-133 792,-133 792,-139 786,-145 780,-145"/>
<text text-anchor="start" x="675" y="-129.2" font-family="Arial" font-weight="bold" font-size="12.00">Requisito</text>
<text text-anchor="start" x="674.65" y="-114" font-family="Arial" font-size="10.00">Certificado en danza</text>
</g>
<!-- B7&#45;&gt;D9 -->
<g id="edge9" class="edge">
<title>B7&#45;&gt;D9:n</title>
<path fill="none" stroke="#142b30" stroke-width="2" d="M691.67,-201.99C705.33,-188.65 716.95,-172.2 719.49,-153.54"/>
<polygon fill="#142b30" stroke="#142b30" stroke-width="2" points="720,-146 722.86,-153.71 720.24,-149.78 719.99,-153.52 719.49,-153.48 718.99,-153.45 719.25,-149.71 716.12,-153.25 720,-146 720,-146"/>
</g>
<!-- D11 -->
<g id="node12" class="node">
<title>D11</title>
<path fill="none" stroke="#104e8b" d="M942,-145C942,-145 822,-145 822,-145 816,-145 810,-139 810,-133 810,-133 810,-117 810,-117 810,-111 816,-105 822,-105 822,-105 942,-105 942,-105 948,-105 954,-111 954,-117 954,-117 954,-133 954,-133 954,-139 948,-145 942,-145"/>
<text text-anchor="start" x="849" y="-129.2" font-family="Arial" font-weight="bold" font-size="12.00">Requisito</text>
<text text-anchor="start" x="848.66" y="-114" font-family="Arial" font-size="10.00">Album de fotos</text>
</g>
<!-- B7&#45;&gt;D11 -->
<g id="edge11" class="edge">
<title>B7&#45;&gt;D11:n</title>
<path fill="none" stroke="#142b30" stroke-width="2" d="M711.25,-225.45C777.84,-211.46 868.2,-186.71 880.57,-153.64"/>
<polygon fill="#142b30" stroke="#142b30" stroke-width="2" points="882,-146 883.94,-153.99 881.8,-149.78 881.12,-153.46 880.62,-153.37 880.13,-153.28 880.82,-149.59 877.31,-152.75 882,-146 882,-146"/>
</g>
<!-- E10 -->
<g id="node11" class="node">
<title>E10</title>
<path fill="none" stroke="#104e8b" d="M780,-48C780,-48 660,-48 660,-48 654,-48 648,-42 648,-36 648,-36 648,-12 648,-12 648,-6 654,0 660,0 660,0 780,0 780,0 786,0 792,-6 792,-12 792,-12 792,-36 792,-36 792,-42 786,-48 780,-48"/>
<text text-anchor="start" x="703.61" y="-35.8" font-family="Arial" font-weight="bold" font-size="8.00">Formatos</text>
<text text-anchor="start" x="704" y="-26.6" font-family="Arial" font-weight="bold" font-size="6.00">&#45; </text>
<text text-anchor="start" x="707.66" y="-26.6" font-family="Arial" font-size="6.00">jpg</text>
<text text-anchor="start" x="704" y="-17.6" font-family="Arial" font-weight="bold" font-size="6.00">&#45; </text>
<text text-anchor="start" x="707.66" y="-17.6" font-family="Arial" font-size="6.00">pdf</text>
<text text-anchor="start" x="704" y="-8.6" font-family="Arial" font-weight="bold" font-size="6.00">&#45; </text>
<text text-anchor="start" x="707.66" y="-8.6" font-family="Arial" font-size="6.00">png</text>
</g>
<!-- D9&#45;&gt;E10 -->
<g id="edge10" class="edge">
<title>D9&#45;&gt;E10:n</title>
<path fill="none" stroke="#142b30" stroke-width="2" d="M720,-104.95C720,-91.62 720,-73.17 720,-55.85"/>
<polygon fill="#142b30" stroke="#142b30" stroke-width="2" points="720,-48 723.38,-55.5 720.5,-51.75 720.5,-55.5 720,-55.5 719.5,-55.5 719.5,-51.75 716.63,-55.5 720,-48 720,-48"/>
</g>
<!-- E12 -->
<g id="node13" class="node">
<title>E12</title>
<path fill="none" stroke="#104e8b" d="M942,-48C942,-48 822,-48 822,-48 816,-48 810,-42 810,-36 810,-36 810,-12 810,-12 810,-6 816,0 822,0 822,0 942,0 942,0 948,0 954,-6 954,-12 954,-12 954,-36 954,-36 954,-42 948,-48 942,-48"/>
<text text-anchor="start" x="865.61" y="-35.8" font-family="Arial" font-weight="bold" font-size="8.00">Formatos</text>
<text text-anchor="start" x="866" y="-26.6" font-family="Arial" font-weight="bold" font-size="6.00">&#45; </text>
<text text-anchor="start" x="869.66" y="-26.6" font-family="Arial" font-size="6.00">jpeg</text>
<text text-anchor="start" x="866" y="-17.6" font-family="Arial" font-weight="bold" font-size="6.00">&#45; </text>
<text text-anchor="start" x="869.66" y="-17.6" font-family="Arial" font-size="6.00">jpg</text>
<text text-anchor="start" x="866" y="-8.6" font-family="Arial" font-weight="bold" font-size="6.00">&#45; </text>
<text text-anchor="start" x="869.66" y="-8.6" font-family="Arial" font-size="6.00">png</text>
</g>
<!-- D11&#45;&gt;E12 -->
<g id="edge12" class="edge">
<title>D11&#45;&gt;E12:n</title>
<path fill="none" stroke="#142b30" stroke-width="2" d="M882,-104.95C882,-91.62 882,-73.17 882,-55.85"/>
<polygon fill="#142b30" stroke="#142b30" stroke-width="2" points="882,-48 885.38,-55.5 882.5,-51.75 882.5,-55.5 882,-55.5 881.5,-55.5 881.5,-51.75 878.63,-55.5 882,-48 882,-48"/>
</g>
</g>
</svg>
