<?xml version="1.0" encoding="UTF-8" standalone="no"?>
<!DOCTYPE svg PUBLIC "-//W3C//DTD SVG 1.1//EN"
 "http://www.w3.org/Graphics/SVG/1.1/DTD/svg11.dtd">
<!-- Generated by graphviz version 2.44.0 (20200518.1210)
 -->
<!-- Title: G Pages: 1 -->
<svg width="2370pt" height="1723pt"
 viewBox="0.00 0.00 2370.01 1722.70" xmlns="http://www.w3.org/2000/svg" xmlns:xlink="http://www.w3.org/1999/xlink">
<g id="graph0" class="graph" transform="scale(1 1) rotate(0) translate(4 1718.7)">
<title>G</title>
<polygon fill="white" stroke="transparent" points="-4,4 -4,-1718.7 2366.01,-1718.7 2366.01,4 -4,4"/>
<!-- A1 -->
<g id="node1" class="node">
<title>A1</title>
<path fill="none" stroke="#104e8b" d="M1507.01,-1094.55C1507.01,-1094.55 1387.01,-1094.55 1387.01,-1094.55 1381.01,-1094.55 1375.01,-1088.55 1375.01,-1082.55 1375.01,-1082.55 1375.01,-1016.55 1375.01,-1016.55 1375.01,-1010.55 1381.01,-1004.55 1387.01,-1004.55 1387.01,-1004.55 1507.01,-1004.55 1507.01,-1004.55 1513.01,-1004.55 1519.01,-1010.55 1519.01,-1016.55 1519.01,-1016.55 1519.01,-1082.55 1519.01,-1082.55 1519.01,-1088.55 1513.01,-1094.55 1507.01,-1094.55"/>
<text text-anchor="start" x="1390" y="-1068.35" font-family="Arial" font-weight="bold" font-size="18.00">Departamento</text>
<text text-anchor="start" x="1410.57" y="-1039.15" font-family="Arial" font-size="16.00">Desarrollo</text>
<text text-anchor="start" x="1424.78" y="-1019.95" font-family="Arial" font-size="16.00">20000</text>
</g>
<!-- B2 -->
<g id="node2" class="node">
<title>B2</title>
<path fill="none" stroke="#104e8b" d="M2289.01,-1087.05C2289.01,-1087.05 2163.01,-1087.05 2163.01,-1087.05 2157.01,-1087.05 2151.01,-1081.05 2151.01,-1075.05 2151.01,-1075.05 2151.01,-1024.05 2151.01,-1024.05 2151.01,-1018.05 2157.01,-1012.05 2163.01,-1012.05 2163.01,-1012.05 2289.01,-1012.05 2289.01,-1012.05 2295.01,-1012.05 2301.01,-1018.05 2301.01,-1024.05 2301.01,-1024.05 2301.01,-1075.05 2301.01,-1075.05 2301.01,-1081.05 2295.01,-1087.05 2289.01,-1087.05"/>
<text text-anchor="start" x="2204.23" y="-1063.95" font-family="Arial" font-weight="bold" font-size="14.00">Puesto</text>
<text text-anchor="start" x="2165.67" y="-1039.75" font-family="Arial" font-size="12.00">Desarrollador backend</text>
<text text-anchor="start" x="2212.67" y="-1025.35" font-family="Arial" font-size="12.00">4500</text>
</g>
<!-- A1&#45;&gt;B2 -->
<g id="edge1" class="edge">
<title>A1&#45;&gt;B2:n</title>
<path fill="none" stroke="#142b30" stroke-width="2" d="M1519.25,-1053.08C1698.41,-1061.82 2153.45,-1084.01 2218.28,-1087.17"/>
<polygon fill="#142b30" stroke="#142b30" stroke-width="2" points="2226.01,-1087.55 2218.36,-1090.56 2222.24,-1087.87 2218.5,-1087.69 2218.52,-1087.19 2218.55,-1086.69 2222.29,-1086.87 2218.69,-1083.82 2226.01,-1087.55 2226.01,-1087.55"/>
</g>
<!-- C3 -->
<g id="node3" class="node">
<title>C3</title>
<path fill="none" stroke="#104e8b" d="M2286.01,-692.55C2286.01,-692.55 2166.01,-692.55 2166.01,-692.55 2160.01,-692.55 2154.01,-686.55 2154.01,-680.55 2154.01,-680.55 2154.01,-636.55 2154.01,-636.55 2154.01,-630.55 2160.01,-624.55 2166.01,-624.55 2166.01,-624.55 2286.01,-624.55 2286.01,-624.55 2292.01,-624.55 2298.01,-630.55 2298.01,-636.55 2298.01,-636.55 2298.01,-680.55 2298.01,-680.55 2298.01,-686.55 2292.01,-692.55 2286.01,-692.55"/>
<text text-anchor="start" x="2197.01" y="-676.75" font-family="Arial" font-weight="bold" font-size="12.00">Categorias</text>
<text text-anchor="start" x="2197.01" y="-662.55" font-family="Arial" font-weight="bold" font-size="10.00">&#45; </text>
<text text-anchor="start" x="2203.12" y="-662.55" font-family="Arial" font-size="10.00">developer</text>
<text text-anchor="start" x="2197.01" y="-648.55" font-family="Arial" font-weight="bold" font-size="10.00">&#45; </text>
<text text-anchor="start" x="2203.12" y="-648.55" font-family="Arial" font-size="10.00">java</text>
<text text-anchor="start" x="2197.01" y="-634.55" font-family="Arial" font-weight="bold" font-size="10.00">&#45; </text>
<text text-anchor="start" x="2203.12" y="-634.55" font-family="Arial" font-size="10.00">software</text>
</g>
<!-- B2&#45;&gt;C3 -->
<g id="edge2" class="edge">
<title>B2&#45;&gt;C3:n</title>
<path fill="none" stroke="#142b30" stroke-width="2" d="M2226.01,-1012.02C2226.01,-930.39 2226.01,-740.76 2226.01,-700.25"/>
<polygon fill="#142b30" stroke="#142b30" stroke-width="2" points="2226.01,-692.55 2229.39,-700.05 2226.51,-696.3 2226.51,-700.05 2226.01,-700.05 2225.51,-700.05 2225.51,-696.3 2222.64,-700.05 2226.01,-692.55 2226.01,-692.55"/>
</g>
<!-- D4 -->
<g id="node4" class="node">
<title>D4</title>
<path fill="none" stroke="#104e8b" d="M2350.01,-1352.55C2350.01,-1352.55 2102.01,-1352.55 2102.01,-1352.55 2096.01,-1352.55 2090.01,-1346.55 2090.01,-1340.55 2090.01,-1340.55 2090.01,-1324.55 2090.01,-1324.55 2090.01,-1318.55 2096.01,-1312.55 2102.01,-1312.55 2102.01,-1312.55 2350.01,-1312.55 2350.01,-1312.55 2356.01,-1312.55 2362.01,-1318.55 2362.01,-1324.55 2362.01,-1324.55 2362.01,-1340.55 2362.01,-1340.55 2362.01,-1346.55 2356.01,-1352.55 2350.01,-1352.55"/>
<text text-anchor="start" x="2100.01" y="-1336.75" font-family="Arial" font-weight="bold" font-size="12.00">Requisito</text>
<text text-anchor="start" x="2099.87" y="-1321.55" font-family="Arial" font-size="10.00">Constancia de cursos aprobados con 200 creditos o mas</text>
</g>
<!-- B2&#45;&gt;D4 -->
<g id="edge3" class="edge">
<title>B2&#45;&gt;D4:n</title>
<path fill="none" stroke="#142b30" stroke-width="2" d="M2226.01,-1087.31C2226.01,-1158.7 2226.01,-1309.49 2226.01,-1344.97"/>
<polygon fill="#142b30" stroke="#142b30" stroke-width="2" points="2226.01,-1352.55 2222.64,-1345.05 2225.51,-1348.8 2225.51,-1345.05 2226.01,-1345.05 2226.51,-1345.05 2226.51,-1348.8 2229.39,-1345.05 2226.01,-1352.55 2226.01,-1352.55"/>
</g>
<!-- E5 -->
<g id="node5" class="node">
<title>E5</title>
<path fill="none" stroke="#104e8b" d="M2286.01,-1632.05C2286.01,-1632.05 2166.01,-1632.05 2166.01,-1632.05 2160.01,-1632.05 2154.01,-1626.05 2154.01,-1620.05 2154.01,-1620.05 2154.01,-1605.05 2154.01,-1605.05 2154.01,-1599.05 2160.01,-1593.05 2166.01,-1593.05 2166.01,-1593.05 2286.01,-1593.05 2286.01,-1593.05 2292.01,-1593.05 2298.01,-1599.05 2298.01,-1605.05 2298.01,-1605.05 2298.01,-1620.05 2298.01,-1620.05 2298.01,-1626.05 2292.01,-1632.05 2286.01,-1632.05"/>
<text text-anchor="start" x="2209.62" y="-1619.35" font-family="Arial" font-weight="bold" font-size="8.00">Formatos</text>
<text text-anchor="start" x="2210.01" y="-1610.15" font-family="Arial" font-weight="bold" font-size="6.00">&#45; </text>
<text text-anchor="start" x="2213.68" y="-1610.15" font-family="Arial" font-size="6.00">png</text>
<text text-anchor="start" x="2210.01" y="-1601.15" font-family="Arial" font-weight="bold" font-size="6.00">&#45; </text>
<text text-anchor="start" x="2213.68" y="-1601.15" font-family="Arial" font-size="6.00">pdf</text>
</g>
<!-- D4&#45;&gt;E5 -->
<g id="edge4" class="edge">
<title>D4&#45;&gt;E5:n</title>
<path fill="none" stroke="#142b30" stroke-width="2" d="M2226.01,-1352.7C2226.01,-1412.35 2226.01,-1586.25 2226.01,-1624.89"/>
<polygon fill="#142b30" stroke="#142b30" stroke-width="2" points="2226.01,-1632.55 2222.64,-1625.05 2225.51,-1628.8 2225.51,-1625.05 2226.01,-1625.05 2226.51,-1625.05 2226.51,-1628.8 2229.39,-1625.05 2226.01,-1632.55 2226.01,-1632.55"/>
</g>
<!-- A6 -->
<g id="node6" class="node">
<title>A6</title>
<path fill="none" stroke="#104e8b" d="M1206.01,-430.55C1206.01,-430.55 1086.01,-430.55 1086.01,-430.55 1080.01,-430.55 1074.01,-424.55 1074.01,-418.55 1074.01,-418.55 1074.01,-352.55 1074.01,-352.55 1074.01,-346.55 1080.01,-340.55 1086.01,-340.55 1086.01,-340.55 1206.01,-340.55 1206.01,-340.55 1212.01,-340.55 1218.01,-346.55 1218.01,-352.55 1218.01,-352.55 1218.01,-418.55 1218.01,-418.55 1218.01,-424.55 1212.01,-430.55 1206.01,-430.55"/>
<text text-anchor="start" x="1089" y="-404.35" font-family="Arial" font-weight="bold" font-size="18.00">Departamento</text>
<text text-anchor="start" x="1102.9" y="-375.15" font-family="Arial" font-size="16.00">Recruitment</text>
<text text-anchor="start" x="1123.78" y="-355.95" font-family="Arial" font-size="16.00">50000</text>
</g>
<!-- B7 -->
<g id="node7" class="node">
<title>B7</title>
<path fill="none" stroke="#104e8b" d="M1854.01,-423.05C1854.01,-423.05 1734.01,-423.05 1734.01,-423.05 1728.01,-423.05 1722.01,-417.05 1722.01,-411.05 1722.01,-411.05 1722.01,-360.05 1722.01,-360.05 1722.01,-354.05 1728.01,-348.05 1734.01,-348.05 1734.01,-348.05 1854.01,-348.05 1854.01,-348.05 1860.01,-348.05 1866.01,-354.05 1866.01,-360.05 1866.01,-360.05 1866.01,-411.05 1866.01,-411.05 1866.01,-417.05 1860.01,-423.05 1854.01,-423.05"/>
<text text-anchor="start" x="1772.73" y="-399.95" font-family="Arial" font-weight="bold" font-size="14.00">Puesto</text>
<text text-anchor="start" x="1779.85" y="-375.75" font-family="Arial" font-size="12.00">JEFE</text>
<text text-anchor="start" x="1777.84" y="-361.35" font-family="Arial" font-size="12.00">30000</text>
</g>
<!-- A6&#45;&gt;B7 -->
<g id="edge5" class="edge">
<title>A6&#45;&gt;B7:n</title>
<path fill="none" stroke="#142b30" stroke-width="2" d="M1218.15,-389.78C1373.53,-398.89 1730.36,-419.82 1786.52,-423.11"/>
<polygon fill="#142b30" stroke="#142b30" stroke-width="2" points="1794.01,-423.55 1786.33,-426.48 1790.24,-423.83 1786.5,-423.61 1786.53,-423.11 1786.56,-422.61 1790.3,-422.83 1786.72,-419.74 1794.01,-423.55 1794.01,-423.55"/>
</g>
<!-- B12 -->
<g id="node13" class="node">
<title>B12</title>
<path fill="none" stroke="#104e8b" d="M558.01,-423.05C558.01,-423.05 438.01,-423.05 438.01,-423.05 432.01,-423.05 426.01,-417.05 426.01,-411.05 426.01,-411.05 426.01,-360.05 426.01,-360.05 426.01,-354.05 432.01,-348.05 438.01,-348.05 438.01,-348.05 558.01,-348.05 558.01,-348.05 564.01,-348.05 570.01,-354.05 570.01,-360.05 570.01,-360.05 570.01,-411.05 570.01,-411.05 570.01,-417.05 564.01,-423.05 558.01,-423.05"/>
<text text-anchor="start" x="476.73" y="-399.95" font-family="Arial" font-weight="bold" font-size="14.00">Puesto</text>
<text text-anchor="start" x="478.18" y="-375.75" font-family="Arial" font-size="12.00">Trainee</text>
<text text-anchor="start" x="481.84" y="-361.35" font-family="Arial" font-size="12.00">10000</text>
</g>
<!-- A6&#45;&gt;B12 -->
<g id="edge11" class="edge">
<title>A6&#45;&gt;B12:n</title>
<path fill="none" stroke="#142b30" stroke-width="2" d="M1073.88,-389.78C918.5,-398.89 561.66,-419.82 505.51,-423.11"/>
<polygon fill="#142b30" stroke="#142b30" stroke-width="2" points="498.01,-423.55 505.3,-419.74 501.73,-422.83 505.47,-422.61 505.5,-423.11 505.53,-423.61 501.79,-423.83 505.7,-426.48 498.01,-423.55 498.01,-423.55"/>
</g>
<!-- C8 -->
<g id="node8" class="node">
<title>C8</title>
<path fill="none" stroke="#104e8b" d="M1676.68,-155.39C1676.68,-155.39 1556.68,-155.39 1556.68,-155.39 1550.68,-155.39 1544.68,-149.39 1544.68,-143.39 1544.68,-143.39 1544.68,-85.39 1544.68,-85.39 1544.68,-79.39 1550.68,-73.39 1556.68,-73.39 1556.68,-73.39 1676.68,-73.39 1676.68,-73.39 1682.68,-73.39 1688.68,-79.39 1688.68,-85.39 1688.68,-85.39 1688.68,-143.39 1688.68,-143.39 1688.68,-149.39 1682.68,-155.39 1676.68,-155.39"/>
<text text-anchor="start" x="1587.68" y="-139.59" font-family="Arial" font-weight="bold" font-size="12.00">Categorias</text>
<text text-anchor="start" x="1587.68" y="-125.39" font-family="Arial" font-weight="bold" font-size="10.00">&#45; </text>
<text text-anchor="start" x="1593.79" y="-125.39" font-family="Arial" font-size="10.00">dinero</text>
<text text-anchor="start" x="1587.68" y="-111.39" font-family="Arial" font-weight="bold" font-size="10.00">&#45; </text>
<text text-anchor="start" x="1593.79" y="-111.39" font-family="Arial" font-size="10.00">exito</text>
<text text-anchor="start" x="1587.68" y="-97.39" font-family="Arial" font-weight="bold" font-size="10.00">&#45; </text>
<text text-anchor="start" x="1593.79" y="-97.39" font-family="Arial" font-size="10.00">humano</text>
<text text-anchor="start" x="1587.68" y="-83.39" font-family="Arial" font-weight="bold" font-size="10.00">&#45; </text>
<text text-anchor="start" x="1593.79" y="-83.39" font-family="Arial" font-size="10.00">social</text>
</g>
<!-- B7&#45;&gt;C8 -->
<g id="edge6" class="edge">
<title>B7&#45;&gt;C8:n</title>
<path fill="none" stroke="#142b30" stroke-width="2" d="M1764.93,-347.8C1721.3,-291.18 1641.86,-188.06 1621.52,-161.67"/>
<polygon fill="#142b30" stroke="#142b30" stroke-width="2" points="1616.68,-155.39 1623.93,-159.27 1619.37,-158.05 1621.66,-161.02 1621.26,-161.33 1620.86,-161.63 1618.58,-158.66 1618.59,-163.39 1616.68,-155.39 1616.68,-155.39"/>
</g>
<!-- D9 -->
<g id="node9" class="node">
<title>D9</title>
<path fill="none" stroke="#104e8b" d="M2067.02,-369.72C2067.02,-369.72 1947.02,-369.72 1947.02,-369.72 1941.02,-369.72 1935.02,-363.72 1935.02,-357.72 1935.02,-357.72 1935.02,-341.72 1935.02,-341.72 1935.02,-335.72 1941.02,-329.72 1947.02,-329.72 1947.02,-329.72 2067.02,-329.72 2067.02,-329.72 2073.02,-329.72 2079.02,-335.72 2079.02,-341.72 2079.02,-341.72 2079.02,-357.72 2079.02,-357.72 2079.02,-363.72 2073.02,-369.72 2067.02,-369.72"/>
<text text-anchor="start" x="1976.02" y="-353.92" font-family="Arial" font-weight="bold" font-size="12.00">Requisito</text>
<text text-anchor="start" x="1975.85" y="-338.72" font-family="Arial" font-size="10.00">Gusto musical</text>
</g>
<!-- B7&#45;&gt;D9 -->
<g id="edge7" class="edge">
<title>B7&#45;&gt;D9:n</title>
<path fill="none" stroke="#142b30" stroke-width="2" d="M1866.13,-380.19C1916.34,-376.46 1977.97,-371.88 1999.31,-370.29"/>
<polygon fill="#142b30" stroke="#142b30" stroke-width="2" points="2007.02,-369.72 1999.79,-373.64 2003.32,-370.5 1999.58,-370.77 1999.54,-370.27 1999.5,-369.78 2003.24,-369.5 1999.29,-366.91 2007.02,-369.72 2007.02,-369.72"/>
</g>
<!-- D11 -->
<g id="node11" class="node">
<title>D11</title>
<path fill="none" stroke="#104e8b" d="M1735.79,-586.33C1735.79,-586.33 1615.79,-586.33 1615.79,-586.33 1609.79,-586.33 1603.79,-580.33 1603.79,-574.33 1603.79,-574.33 1603.79,-558.33 1603.79,-558.33 1603.79,-552.33 1609.79,-546.33 1615.79,-546.33 1615.79,-546.33 1735.79,-546.33 1735.79,-546.33 1741.79,-546.33 1747.79,-552.33 1747.79,-558.33 1747.79,-558.33 1747.79,-574.33 1747.79,-574.33 1747.79,-580.33 1741.79,-586.33 1735.79,-586.33"/>
<text text-anchor="start" x="1650.79" y="-570.53" font-family="Arial" font-weight="bold" font-size="12.00">Requisito</text>
<text text-anchor="start" x="1650.79" y="-555.33" font-family="Arial" font-size="10.00">Pasaporte</text>
</g>
<!-- B7&#45;&gt;D11 -->
<g id="edge9" class="edge">
<title>B7&#45;&gt;D11:n</title>
<path fill="none" stroke="#142b30" stroke-width="2" d="M1771.78,-423.32C1742.75,-472.62 1693.97,-555.46 1679.78,-579.56"/>
<polygon fill="#142b30" stroke="#142b30" stroke-width="2" points="1675.79,-586.33 1676.69,-578.15 1677.27,-582.84 1679.17,-579.61 1679.6,-579.87 1680.03,-580.12 1678.13,-583.35 1682.51,-581.58 1675.79,-586.33 1675.79,-586.33"/>
</g>
<!-- E10 -->
<g id="node10" class="node">
<title>E10</title>
<path fill="none" stroke="#104e8b" d="M2280.03,-337.88C2280.03,-337.88 2160.03,-337.88 2160.03,-337.88 2154.03,-337.88 2148.03,-331.88 2148.03,-325.88 2148.03,-325.88 2148.03,-301.88 2148.03,-301.88 2148.03,-295.88 2154.03,-289.88 2160.03,-289.88 2160.03,-289.88 2280.03,-289.88 2280.03,-289.88 2286.03,-289.88 2292.03,-295.88 2292.03,-301.88 2292.03,-301.88 2292.03,-325.88 2292.03,-325.88 2292.03,-331.88 2286.03,-337.88 2280.03,-337.88"/>
<text text-anchor="start" x="2203.64" y="-325.68" font-family="Arial" font-weight="bold" font-size="8.00">Formatos</text>
<text text-anchor="start" x="2204.03" y="-316.48" font-family="Arial" font-weight="bold" font-size="6.00">&#45; </text>
<text text-anchor="start" x="2207.69" y="-316.48" font-family="Arial" font-size="6.00">mp4</text>
<text text-anchor="start" x="2204.03" y="-307.48" font-family="Arial" font-weight="bold" font-size="6.00">&#45; </text>
<text text-anchor="start" x="2207.69" y="-307.48" font-family="Arial" font-size="6.00">mkv</text>
<text text-anchor="start" x="2204.03" y="-298.48" font-family="Arial" font-weight="bold" font-size="6.00">&#45; </text>
<text text-anchor="start" x="2207.69" y="-298.48" font-family="Arial" font-size="6.00">mp3</text>
</g>
<!-- D9&#45;&gt;E10 -->
<g id="edge8" class="edge">
<title>D9&#45;&gt;E10:n</title>
<path fill="none" stroke="#142b30" stroke-width="2" d="M2079.14,-345.71C2129.34,-342.92 2190.97,-339.5 2212.32,-338.31"/>
<polygon fill="#142b30" stroke="#142b30" stroke-width="2" points="2220.03,-337.88 2212.73,-341.67 2216.31,-338.59 2212.57,-338.8 2212.54,-338.3 2212.51,-337.8 2216.26,-337.59 2212.35,-334.93 2220.03,-337.88 2220.03,-337.88"/>
</g>
<!-- E12 -->
<g id="node12" class="node">
<title>E12</title>
<path fill="none" stroke="#104e8b" d="M1617.57,-766.6C1617.57,-766.6 1497.57,-766.6 1497.57,-766.6 1491.57,-766.6 1485.57,-760.6 1485.57,-754.6 1485.57,-754.6 1485.57,-739.6 1485.57,-739.6 1485.57,-733.6 1491.57,-727.6 1497.57,-727.6 1497.57,-727.6 1617.57,-727.6 1617.57,-727.6 1623.57,-727.6 1629.57,-733.6 1629.57,-739.6 1629.57,-739.6 1629.57,-754.6 1629.57,-754.6 1629.57,-760.6 1623.57,-766.6 1617.57,-766.6"/>
<text text-anchor="start" x="1541.18" y="-753.9" font-family="Arial" font-weight="bold" font-size="8.00">Formatos</text>
<text text-anchor="start" x="1541.57" y="-744.7" font-family="Arial" font-weight="bold" font-size="6.00">&#45; </text>
<text text-anchor="start" x="1545.24" y="-744.7" font-family="Arial" font-size="6.00">pdf</text>
<text text-anchor="start" x="1541.57" y="-735.7" font-family="Arial" font-weight="bold" font-size="6.00">&#45; </text>
<text text-anchor="start" x="1545.24" y="-735.7" font-family="Arial" font-size="6.00">png</text>
</g>
<!-- D11&#45;&gt;E12 -->
<g id="edge10" class="edge">
<title>D11&#45;&gt;E12:n</title>
<path fill="none" stroke="#142b30" stroke-width="2" d="M1663.81,-586.68C1637.86,-630.75 1577.54,-733.19 1561.53,-760.38"/>
<polygon fill="#142b30" stroke="#142b30" stroke-width="2" points="1557.57,-767.1 1558.47,-758.93 1559.05,-763.62 1560.95,-760.39 1561.38,-760.64 1561.81,-760.89 1559.91,-764.13 1564.29,-762.35 1557.57,-767.1 1557.57,-767.1"/>
</g>
<!-- C13 -->
<g id="node14" class="node">
<title>C13</title>
<path fill="none" stroke="#104e8b" d="M735.34,-697.72C735.34,-697.72 615.34,-697.72 615.34,-697.72 609.34,-697.72 603.34,-691.72 603.34,-685.72 603.34,-685.72 603.34,-627.72 603.34,-627.72 603.34,-621.72 609.34,-615.72 615.34,-615.72 615.34,-615.72 735.34,-615.72 735.34,-615.72 741.34,-615.72 747.34,-621.72 747.34,-627.72 747.34,-627.72 747.34,-685.72 747.34,-685.72 747.34,-691.72 741.34,-697.72 735.34,-697.72"/>
<text text-anchor="start" x="646.34" y="-681.92" font-family="Arial" font-weight="bold" font-size="12.00">Categorias</text>
<text text-anchor="start" x="646.34" y="-667.72" font-family="Arial" font-weight="bold" font-size="10.00">&#45; </text>
<text text-anchor="start" x="652.45" y="-667.72" font-family="Arial" font-size="10.00">danza</text>
<text text-anchor="start" x="646.34" y="-653.72" font-family="Arial" font-weight="bold" font-size="10.00">&#45; </text>
<text text-anchor="start" x="652.45" y="-653.72" font-family="Arial" font-size="10.00">dinero</text>
<text text-anchor="start" x="646.34" y="-639.72" font-family="Arial" font-weight="bold" font-size="10.00">&#45; </text>
<text text-anchor="start" x="652.45" y="-639.72" font-family="Arial" font-size="10.00">fama</text>
<text text-anchor="start" x="646.34" y="-625.72" font-family="Arial" font-weight="bold" font-size="10.00">&#45; </text>
<text text-anchor="start" x="652.45" y="-625.72" font-family="Arial" font-size="10.00">musica</text>
</g>
<!-- B12&#45;&gt;C13 -->
<g id="edge12" class="edge">
<title>B12&#45;&gt;C13:n</title>
<path fill="none" stroke="#142b30" stroke-width="2" d="M519.4,-423.21C561.23,-496.83 651.49,-655.72 671.4,-690.78"/>
<polygon fill="#142b30" stroke="#142b30" stroke-width="2" points="675.34,-697.72 668.71,-692.86 673.06,-694.7 671.21,-691.44 671.64,-691.19 672.07,-690.95 673.93,-694.21 674.57,-689.53 675.34,-697.72 675.34,-697.72"/>
</g>
<!-- D14 -->
<g id="node15" class="node">
<title>D14</title>
<path fill="none" stroke="#104e8b" d="M345.01,-441.39C345.01,-441.39 225.01,-441.39 225.01,-441.39 219.01,-441.39 213.01,-435.39 213.01,-429.39 213.01,-429.39 213.01,-413.39 213.01,-413.39 213.01,-407.39 219.01,-401.39 225.01,-401.39 225.01,-401.39 345.01,-401.39 345.01,-401.39 351.01,-401.39 357.01,-407.39 357.01,-413.39 357.01,-413.39 357.01,-429.39 357.01,-429.39 357.01,-435.39 351.01,-441.39 345.01,-441.39"/>
<text text-anchor="start" x="240.01" y="-425.59" font-family="Arial" font-weight="bold" font-size="12.00">Requisito</text>
<text text-anchor="start" x="239.66" y="-410.39" font-family="Arial" font-size="10.00">Certificado en danza</text>
</g>
<!-- B12&#45;&gt;D14 -->
<g id="edge13" class="edge">
<title>B12&#45;&gt;D14:n</title>
<path fill="none" stroke="#142b30" stroke-width="2" d="M425.9,-404.45C375.45,-417.68 313.47,-433.93 292.41,-439.45"/>
<polygon fill="#142b30" stroke="#142b30" stroke-width="2" points="285.01,-441.39 291.41,-436.22 288.51,-439.95 292.14,-439 292.26,-439.48 292.39,-439.97 288.76,-440.92 293.12,-442.75 285.01,-441.39 285.01,-441.39"/>
</g>
<!-- D16 -->
<g id="node17" class="node">
<title>D16</title>
<path fill="none" stroke="#104e8b" d="M676.23,-224.78C676.23,-224.78 556.23,-224.78 556.23,-224.78 550.23,-224.78 544.23,-218.78 544.23,-212.78 544.23,-212.78 544.23,-196.78 544.23,-196.78 544.23,-190.78 550.23,-184.78 556.23,-184.78 556.23,-184.78 676.23,-184.78 676.23,-184.78 682.23,-184.78 688.23,-190.78 688.23,-196.78 688.23,-196.78 688.23,-212.78 688.23,-212.78 688.23,-218.78 682.23,-224.78 676.23,-224.78"/>
<text text-anchor="start" x="583.23" y="-208.98" font-family="Arial" font-weight="bold" font-size="12.00">Requisito</text>
<text text-anchor="start" x="582.89" y="-193.78" font-family="Arial" font-size="10.00">Album de fotos</text>
</g>
<!-- B12&#45;&gt;D16 -->
<g id="edge15" class="edge">
<title>B12&#45;&gt;D16:n</title>
<path fill="none" stroke="#142b30" stroke-width="2" d="M525.73,-347.86C554.67,-308.5 597.74,-249.92 611.7,-230.95"/>
<polygon fill="#142b30" stroke="#142b30" stroke-width="2" points="616.23,-224.78 614.51,-232.82 614.42,-228.09 612.19,-231.11 611.79,-230.82 611.39,-230.52 613.61,-227.5 609.07,-228.82 616.23,-224.78 616.23,-224.78"/>
</g>
<!-- E15 -->
<g id="node16" class="node">
<title>E15</title>
<path fill="none" stroke="#104e8b" d="M132,-481.22C132,-481.22 12,-481.22 12,-481.22 6,-481.22 0,-475.22 0,-469.22 0,-469.22 0,-445.22 0,-445.22 0,-439.22 6,-433.22 12,-433.22 12,-433.22 132,-433.22 132,-433.22 138,-433.22 144,-439.22 144,-445.22 144,-445.22 144,-469.22 144,-469.22 144,-475.22 138,-481.22 132,-481.22"/>
<text text-anchor="start" x="55.61" y="-469.02" font-family="Arial" font-weight="bold" font-size="8.00">Formatos</text>
<text text-anchor="start" x="56" y="-459.82" font-family="Arial" font-weight="bold" font-size="6.00">&#45; </text>
<text text-anchor="start" x="59.66" y="-459.82" font-family="Arial" font-size="6.00">jpg</text>
<text text-anchor="start" x="56" y="-450.82" font-family="Arial" font-weight="bold" font-size="6.00">&#45; </text>
<text text-anchor="start" x="59.66" y="-450.82" font-family="Arial" font-size="6.00">png</text>
<text text-anchor="start" x="56" y="-441.82" font-family="Arial" font-weight="bold" font-size="6.00">&#45; </text>
<text text-anchor="start" x="59.66" y="-441.82" font-family="Arial" font-size="6.00">pdf</text>
</g>
<!-- D14&#45;&gt;E15 -->
<g id="edge14" class="edge">
<title>D14&#45;&gt;E15:n</title>
<path fill="none" stroke="#142b30" stroke-width="2" d="M213.78,-441.39C163.23,-455.59 100.72,-473.15 79.47,-479.12"/>
<polygon fill="#142b30" stroke="#142b30" stroke-width="2" points="72,-481.22 78.31,-475.94 75.48,-479.72 79.09,-478.71 79.22,-479.19 79.36,-479.67 75.75,-480.69 80.13,-482.44 72,-481.22 72,-481.22"/>
</g>
<!-- E17 -->
<g id="node18" class="node">
<title>E17</title>
<path fill="none" stroke="#104e8b" d="M794.45,-48C794.45,-48 674.45,-48 674.45,-48 668.45,-48 662.45,-42 662.45,-36 662.45,-36 662.45,-12 662.45,-12 662.45,-6 668.45,0 674.45,0 674.45,0 794.45,0 794.45,0 800.45,0 806.45,-6 806.45,-12 806.45,-12 806.45,-36 806.45,-36 806.45,-42 800.45,-48 794.45,-48"/>
<text text-anchor="start" x="718.07" y="-35.8" font-family="Arial" font-weight="bold" font-size="8.00">Formatos</text>
<text text-anchor="start" x="718.45" y="-26.6" font-family="Arial" font-weight="bold" font-size="6.00">&#45; </text>
<text text-anchor="start" x="722.12" y="-26.6" font-family="Arial" font-size="6.00">png</text>
<text text-anchor="start" x="718.45" y="-17.6" font-family="Arial" font-weight="bold" font-size="6.00">&#45; </text>
<text text-anchor="start" x="722.12" y="-17.6" font-family="Arial" font-size="6.00">jpg</text>
<text text-anchor="start" x="718.45" y="-8.6" font-family="Arial" font-weight="bold" font-size="6.00">&#45; </text>
<text text-anchor="start" x="722.12" y="-8.6" font-family="Arial" font-size="6.00">jpeg</text>
</g>
<!-- D16&#45;&gt;E17 -->
<g id="edge16" class="edge">
<title>D16&#45;&gt;E17:n</title>
<path fill="none" stroke="#142b30" stroke-width="2" d="M631.45,-184.6C658.51,-148.71 713.71,-75.51 729.9,-54.05"/>
<polygon fill="#142b30" stroke="#142b30" stroke-width="2" points="734.45,-48 732.63,-56.02 732.6,-51.3 730.34,-54.29 729.94,-53.99 729.54,-53.69 731.8,-50.69 727.24,-51.96 734.45,-48 734.45,-48"/>
</g>
<!-- A18 -->
<g id="node19" class="node">
<title>A18</title>
<path fill="none" stroke="#104e8b" d="M632.01,-1365.55C632.01,-1365.55 512.01,-1365.55 512.01,-1365.55 506.01,-1365.55 500.01,-1359.55 500.01,-1353.55 500.01,-1353.55 500.01,-1287.55 500.01,-1287.55 500.01,-1281.55 506.01,-1275.55 512.01,-1275.55 512.01,-1275.55 632.01,-1275.55 632.01,-1275.55 638.01,-1275.55 644.01,-1281.55 644.01,-1287.55 644.01,-1287.55 644.01,-1353.55 644.01,-1353.55 644.01,-1359.55 638.01,-1365.55 632.01,-1365.55"/>
<text text-anchor="start" x="515" y="-1339.35" font-family="Arial" font-weight="bold" font-size="18.00">Departamento</text>
<text text-anchor="start" x="522.23" y="-1310.15" font-family="Arial" font-size="16.00">musical group</text>
<text text-anchor="start" x="545.33" y="-1290.95" font-family="Arial" font-size="16.00">100000</text>
</g>
<!-- B19 -->
<g id="node20" class="node">
<title>B19</title>
<path fill="none" stroke="#104e8b" d="M1326.01,-1358.05C1326.01,-1358.05 1206.01,-1358.05 1206.01,-1358.05 1200.01,-1358.05 1194.01,-1352.05 1194.01,-1346.05 1194.01,-1346.05 1194.01,-1295.05 1194.01,-1295.05 1194.01,-1289.05 1200.01,-1283.05 1206.01,-1283.05 1206.01,-1283.05 1326.01,-1283.05 1326.01,-1283.05 1332.01,-1283.05 1338.01,-1289.05 1338.01,-1295.05 1338.01,-1295.05 1338.01,-1346.05 1338.01,-1346.05 1338.01,-1352.05 1332.01,-1358.05 1326.01,-1358.05"/>
<text text-anchor="start" x="1244.73" y="-1334.95" font-family="Arial" font-weight="bold" font-size="14.00">Puesto</text>
<text text-anchor="start" x="1246.84" y="-1310.75" font-family="Arial" font-size="12.00">Rapper</text>
<text text-anchor="start" x="1249.84" y="-1296.35" font-family="Arial" font-size="12.00">60000</text>
</g>
<!-- A18&#45;&gt;B19 -->
<g id="edge17" class="edge">
<title>A18&#45;&gt;B19:n</title>
<path fill="none" stroke="#142b30" stroke-width="2" d="M644.32,-1324.51C808.18,-1333.48 1198.27,-1354.84 1258.22,-1358.13"/>
<polygon fill="#142b30" stroke="#142b30" stroke-width="2" points="1266.01,-1358.55 1258.34,-1361.51 1262.24,-1358.85 1258.5,-1358.64 1258.53,-1358.14 1258.55,-1357.64 1262.3,-1357.85 1258.71,-1354.77 1266.01,-1358.55 1266.01,-1358.55"/>
</g>
<!-- C20 -->
<g id="node21" class="node">
<title>C20</title>
<path fill="none" stroke="#104e8b" d="M1130.78,-1067.68C1130.78,-1067.68 1010.78,-1067.68 1010.78,-1067.68 1004.78,-1067.68 998.78,-1061.68 998.78,-1055.68 998.78,-1055.68 998.78,-1011.68 998.78,-1011.68 998.78,-1005.68 1004.78,-999.68 1010.78,-999.68 1010.78,-999.68 1130.78,-999.68 1130.78,-999.68 1136.78,-999.68 1142.78,-1005.68 1142.78,-1011.68 1142.78,-1011.68 1142.78,-1055.68 1142.78,-1055.68 1142.78,-1061.68 1136.78,-1067.68 1130.78,-1067.68"/>
<text text-anchor="start" x="1041.78" y="-1051.88" font-family="Arial" font-weight="bold" font-size="12.00">Categorias</text>
<text text-anchor="start" x="1041.78" y="-1037.68" font-family="Arial" font-weight="bold" font-size="10.00">&#45; </text>
<text text-anchor="start" x="1047.89" y="-1037.68" font-family="Arial" font-size="10.00">cool</text>
<text text-anchor="start" x="1041.78" y="-1023.68" font-family="Arial" font-weight="bold" font-size="10.00">&#45; </text>
<text text-anchor="start" x="1047.89" y="-1023.68" font-family="Arial" font-size="10.00">fama</text>
<text text-anchor="start" x="1041.78" y="-1009.68" font-family="Arial" font-weight="bold" font-size="10.00">&#45; </text>
<text text-anchor="start" x="1047.89" y="-1009.68" font-family="Arial" font-size="10.00">musica</text>
</g>
<!-- B19&#45;&gt;C20 -->
<g id="edge18" class="edge">
<title>B19&#45;&gt;C20:n</title>
<path fill="none" stroke="#142b30" stroke-width="2" d="M1237,-1282.97C1189.2,-1221.06 1097.02,-1101.67 1075.4,-1073.67"/>
<polygon fill="#142b30" stroke="#142b30" stroke-width="2" points="1070.78,-1067.68 1078.04,-1071.56 1073.47,-1070.35 1075.76,-1073.32 1075.36,-1073.62 1074.97,-1073.93 1072.68,-1070.96 1072.69,-1075.68 1070.78,-1067.68 1070.78,-1067.68"/>
</g>
<!-- D21 -->
<g id="node22" class="node">
<title>D21</title>
<path fill="none" stroke="#104e8b" d="M1585.13,-1303.51C1585.13,-1303.51 1419.13,-1303.51 1419.13,-1303.51 1413.13,-1303.51 1407.13,-1297.51 1407.13,-1291.51 1407.13,-1291.51 1407.13,-1275.51 1407.13,-1275.51 1407.13,-1269.51 1413.13,-1263.51 1419.13,-1263.51 1419.13,-1263.51 1585.13,-1263.51 1585.13,-1263.51 1591.13,-1263.51 1597.13,-1269.51 1597.13,-1275.51 1597.13,-1275.51 1597.13,-1291.51 1597.13,-1291.51 1597.13,-1297.51 1591.13,-1303.51 1585.13,-1303.51"/>
<text text-anchor="start" x="1417.13" y="-1287.71" font-family="Arial" font-weight="bold" font-size="12.00">Requisito</text>
<text text-anchor="start" x="1416.82" y="-1272.51" font-family="Arial" font-size="10.00">Video de audicion, 4 versos a eleccion</text>
</g>
<!-- B19&#45;&gt;D21 -->
<g id="edge19" class="edge">
<title>B19&#45;&gt;D21:n</title>
<path fill="none" stroke="#142b30" stroke-width="2" d="M1338.14,-1315.35C1395.64,-1311.2 1470.37,-1305.8 1494.35,-1304.07"/>
<polygon fill="#142b30" stroke="#142b30" stroke-width="2" points="1502.13,-1303.51 1494.89,-1307.42 1498.42,-1304.28 1494.68,-1304.55 1494.65,-1304.05 1494.61,-1303.55 1498.35,-1303.28 1494.4,-1300.68 1502.13,-1303.51 1502.13,-1303.51"/>
</g>
<!-- D23 -->
<g id="node24" class="node">
<title>D23</title>
<path fill="none" stroke="#104e8b" d="M1191.54,-1538.14C1191.54,-1538.14 1071.54,-1538.14 1071.54,-1538.14 1065.54,-1538.14 1059.54,-1532.14 1059.54,-1526.14 1059.54,-1526.14 1059.54,-1510.14 1059.54,-1510.14 1059.54,-1504.14 1065.54,-1498.14 1071.54,-1498.14 1071.54,-1498.14 1191.54,-1498.14 1191.54,-1498.14 1197.54,-1498.14 1203.54,-1504.14 1203.54,-1510.14 1203.54,-1510.14 1203.54,-1526.14 1203.54,-1526.14 1203.54,-1532.14 1197.54,-1538.14 1191.54,-1538.14"/>
<text text-anchor="start" x="1084.54" y="-1522.34" font-family="Arial" font-weight="bold" font-size="12.00">Requisito</text>
<text text-anchor="start" x="1084.31" y="-1507.14" font-family="Arial" font-size="10.00">Certificado de lectura</text>
</g>
<!-- B19&#45;&gt;D23 -->
<g id="edge21" class="edge">
<title>B19&#45;&gt;D23:n</title>
<path fill="none" stroke="#142b30" stroke-width="2" d="M1242.59,-1358.45C1209.48,-1412.02 1151.27,-1506.22 1135.55,-1531.65"/>
<polygon fill="#142b30" stroke="#142b30" stroke-width="2" points="1131.54,-1538.14 1132.62,-1529.98 1133.09,-1534.68 1135.06,-1531.49 1135.49,-1531.76 1135.91,-1532.02 1133.94,-1535.21 1138.36,-1533.53 1131.54,-1538.14 1131.54,-1538.14"/>
</g>
<!-- E22 -->
<g id="node23" class="node">
<title>E22</title>
<path fill="none" stroke="#104e8b" d="M1798.24,-1270.47C1798.24,-1270.47 1678.24,-1270.47 1678.24,-1270.47 1672.24,-1270.47 1666.24,-1264.47 1666.24,-1258.47 1666.24,-1258.47 1666.24,-1234.47 1666.24,-1234.47 1666.24,-1228.47 1672.24,-1222.47 1678.24,-1222.47 1678.24,-1222.47 1798.24,-1222.47 1798.24,-1222.47 1804.24,-1222.47 1810.24,-1228.47 1810.24,-1234.47 1810.24,-1234.47 1810.24,-1258.47 1810.24,-1258.47 1810.24,-1264.47 1804.24,-1270.47 1798.24,-1270.47"/>
<text text-anchor="start" x="1721.85" y="-1258.27" font-family="Arial" font-weight="bold" font-size="8.00">Formatos</text>
<text text-anchor="start" x="1722.24" y="-1249.07" font-family="Arial" font-weight="bold" font-size="6.00">&#45; </text>
<text text-anchor="start" x="1725.9" y="-1249.07" font-family="Arial" font-size="6.00">wmv</text>
<text text-anchor="start" x="1722.24" y="-1240.07" font-family="Arial" font-weight="bold" font-size="6.00">&#45; </text>
<text text-anchor="start" x="1725.9" y="-1240.07" font-family="Arial" font-size="6.00">mkv</text>
<text text-anchor="start" x="1722.24" y="-1231.07" font-family="Arial" font-weight="bold" font-size="6.00">&#45; </text>
<text text-anchor="start" x="1725.9" y="-1231.07" font-family="Arial" font-size="6.00">mp4</text>
</g>
<!-- D21&#45;&gt;E22 -->
<g id="edge20" class="edge">
<title>D21&#45;&gt;E22:n</title>
<path fill="none" stroke="#142b30" stroke-width="2" d="M1597.14,-1278.26C1650.19,-1275.33 1709.7,-1272.04 1730.54,-1270.89"/>
<polygon fill="#142b30" stroke="#142b30" stroke-width="2" points="1738.24,-1270.47 1730.94,-1274.25 1734.52,-1271.17 1730.78,-1271.38 1730.75,-1270.88 1730.72,-1270.38 1734.47,-1270.17 1730.56,-1267.51 1738.24,-1270.47 1738.24,-1270.47"/>
</g>
<!-- E24 -->
<g id="node25" class="node">
<title>E24</title>
<path fill="none" stroke="#104e8b" d="M1070.02,-1714.7C1070.02,-1714.7 950.02,-1714.7 950.02,-1714.7 944.02,-1714.7 938.02,-1708.7 938.02,-1702.7 938.02,-1702.7 938.02,-1690.7 938.02,-1690.7 938.02,-1684.7 944.02,-1678.7 950.02,-1678.7 950.02,-1678.7 1070.02,-1678.7 1070.02,-1678.7 1076.02,-1678.7 1082.02,-1684.7 1082.02,-1690.7 1082.02,-1690.7 1082.02,-1702.7 1082.02,-1702.7 1082.02,-1708.7 1076.02,-1714.7 1070.02,-1714.7"/>
<text text-anchor="start" x="993.63" y="-1699.5" font-family="Arial" font-weight="bold" font-size="8.00">Formatos</text>
<text text-anchor="start" x="994.02" y="-1690.3" font-family="Arial" font-weight="bold" font-size="6.00">&#45; </text>
<text text-anchor="start" x="997.68" y="-1690.3" font-family="Arial" font-size="6.00">pdf</text>
</g>
<!-- D23&#45;&gt;E24 -->
<g id="edge22" class="edge">
<title>D23&#45;&gt;E24:n</title>
<path fill="none" stroke="#142b30" stroke-width="2" d="M1119,-1538.43C1092.19,-1581.79 1030.45,-1681.65 1014.07,-1708.15"/>
<polygon fill="#142b30" stroke="#142b30" stroke-width="2" points="1010.02,-1714.7 1011.09,-1706.55 1011.56,-1711.25 1013.54,-1708.06 1013.96,-1708.32 1014.39,-1708.59 1012.41,-1711.78 1016.83,-1710.1 1010.02,-1714.7 1010.02,-1714.7"/>
</g>
</g>
</svg>
