<?xml version="1.0" encoding="UTF-8" standalone="no"?>
<!DOCTYPE svg PUBLIC "-//W3C//DTD SVG 1.1//EN"
 "http://www.w3.org/Graphics/SVG/1.1/DTD/svg11.dtd">
<!-- Generated by graphviz version 2.44.0 (20200518.1210)
 -->
<!-- Title: G Pages: 1 -->
<svg width="1946pt" height="411pt"
 viewBox="0.00 0.00 1946.00 411.00" xmlns="http://www.w3.org/2000/svg" xmlns:xlink="http://www.w3.org/1999/xlink">
<g id="graph0" class="graph" transform="scale(1 1) rotate(0) translate(4 407)">
<title>G</title>
<polygon fill="white" stroke="transparent" points="-4,4 -4,-407 1942,-407 1942,4 -4,4"/>
<!-- A1 -->
<g id="node1" class="node">
<title>A1</title>
<path fill="none" stroke="#104e8b" d="M245,-403C245,-403 125,-403 125,-403 119,-403 113,-397 113,-391 113,-391 113,-325 113,-325 113,-319 119,-313 125,-313 125,-313 245,-313 245,-313 251,-313 257,-319 257,-325 257,-325 257,-391 257,-391 257,-397 251,-403 245,-403"/>
<text text-anchor="start" x="127.99" y="-376.8" font-family="Arial" font-weight="bold" font-size="18.00">Departamento</text>
<text text-anchor="start" x="148.56" y="-347.6" font-family="Arial" font-size="16.00">Desarrollo</text>
<text text-anchor="start" x="162.76" y="-328.4" font-family="Arial" font-size="16.00">20000</text>
</g>
<!-- B2 -->
<g id="node2" class="node">
<title>B2</title>
<path fill="none" stroke="#104e8b" d="M248,-277C248,-277 122,-277 122,-277 116,-277 110,-271 110,-265 110,-265 110,-214 110,-214 110,-208 116,-202 122,-202 122,-202 248,-202 248,-202 254,-202 260,-208 260,-214 260,-214 260,-265 260,-265 260,-271 254,-277 248,-277"/>
<text text-anchor="start" x="163.21" y="-253.9" font-family="Arial" font-weight="bold" font-size="14.00">Puesto</text>
<text text-anchor="start" x="124.66" y="-229.7" font-family="Arial" font-size="12.00">Desarrollador backend</text>
<text text-anchor="start" x="171.66" y="-215.3" font-family="Arial" font-size="12.00">4500</text>
</g>
<!-- A1&#45;&gt;B2 -->
<g id="edge1" class="edge">
<title>A1&#45;&gt;B2:n</title>
<path fill="none" stroke="#142b30" stroke-width="2" d="M185,-312.99C185,-303.85 185,-294.15 185,-284.77"/>
<polygon fill="#142b30" stroke="#142b30" stroke-width="2" points="185,-277 188.38,-284.5 185.5,-280.75 185.5,-284.5 185,-284.5 184.5,-284.5 184.5,-280.75 181.63,-284.5 185,-277 185,-277"/>
</g>
<!-- C3 -->
<g id="node3" class="node">
<title>C3</title>
<path fill="none" stroke="#104e8b" d="M132,-159C132,-159 12,-159 12,-159 6,-159 0,-153 0,-147 0,-147 0,-103 0,-103 0,-97 6,-91 12,-91 12,-91 132,-91 132,-91 138,-91 144,-97 144,-103 144,-103 144,-147 144,-147 144,-153 138,-159 132,-159"/>
<text text-anchor="start" x="43" y="-143.2" font-family="Arial" font-weight="bold" font-size="12.00">Categorias</text>
<text text-anchor="start" x="43" y="-129" font-family="Arial" font-weight="bold" font-size="10.00">&#45; </text>
<text text-anchor="start" x="49.11" y="-129" font-family="Arial" font-size="10.00">developer</text>
<text text-anchor="start" x="43" y="-115" font-family="Arial" font-weight="bold" font-size="10.00">&#45; </text>
<text text-anchor="start" x="49.11" y="-115" font-family="Arial" font-size="10.00">java</text>
<text text-anchor="start" x="43" y="-101" font-family="Arial" font-weight="bold" font-size="10.00">&#45; </text>
<text text-anchor="start" x="49.11" y="-101" font-family="Arial" font-size="10.00">software</text>
</g>
<!-- B2&#45;&gt;C3 -->
<g id="edge2" class="edge">
<title>B2&#45;&gt;C3:n</title>
<path fill="none" stroke="#142b30" stroke-width="2" d="M109.94,-213.01C91.35,-202.24 75.78,-187.46 72.6,-167.56"/>
<polygon fill="#142b30" stroke="#142b30" stroke-width="2" points="72,-160 75.95,-167.21 72.79,-163.7 73.09,-167.44 72.59,-167.48 72.09,-167.52 71.8,-163.78 69.22,-167.74 72,-160 72,-160"/>
</g>
<!-- D4 -->
<g id="node4" class="node">
<title>D4</title>
<path fill="none" stroke="#104e8b" d="M422,-145C422,-145 174,-145 174,-145 168,-145 162,-139 162,-133 162,-133 162,-117 162,-117 162,-111 168,-105 174,-105 174,-105 422,-105 422,-105 428,-105 434,-111 434,-117 434,-117 434,-133 434,-133 434,-139 428,-145 422,-145"/>
<text text-anchor="start" x="172" y="-129.2" font-family="Arial" font-weight="bold" font-size="12.00">Requisito</text>
<text text-anchor="start" x="171.85" y="-114" font-family="Arial" font-size="10.00">Constancia de cursos aprobados con 200 creditos o mas</text>
</g>
<!-- B2&#45;&gt;D4 -->
<g id="edge3" class="edge">
<title>B2&#45;&gt;D4:n</title>
<path fill="none" stroke="#142b30" stroke-width="2" d="M260.06,-205.34C278.81,-192.29 294.49,-175.15 297.49,-153.51"/>
<polygon fill="#142b30" stroke="#142b30" stroke-width="2" points="298,-146 300.85,-153.71 298.24,-149.78 297.99,-153.52 297.49,-153.48 296.99,-153.45 297.24,-149.71 294.12,-153.25 298,-146 298,-146"/>
</g>
<!-- E5 -->
<g id="node5" class="node">
<title>E5</title>
<path fill="none" stroke="#104e8b" d="M358,-43.5C358,-43.5 238,-43.5 238,-43.5 232,-43.5 226,-37.5 226,-31.5 226,-31.5 226,-16.5 226,-16.5 226,-10.5 232,-4.5 238,-4.5 238,-4.5 358,-4.5 358,-4.5 364,-4.5 370,-10.5 370,-16.5 370,-16.5 370,-31.5 370,-31.5 370,-37.5 364,-43.5 358,-43.5"/>
<text text-anchor="start" x="281.61" y="-30.8" font-family="Arial" font-weight="bold" font-size="8.00">Formatos</text>
<text text-anchor="start" x="282" y="-21.6" font-family="Arial" font-weight="bold" font-size="6.00">&#45; </text>
<text text-anchor="start" x="285.66" y="-21.6" font-family="Arial" font-size="6.00">png</text>
<text text-anchor="start" x="282" y="-12.6" font-family="Arial" font-weight="bold" font-size="6.00">&#45; </text>
<text text-anchor="start" x="285.66" y="-12.6" font-family="Arial" font-size="6.00">pdf</text>
</g>
<!-- D4&#45;&gt;E5 -->
<g id="edge4" class="edge">
<title>D4&#45;&gt;E5:n</title>
<path fill="none" stroke="#142b30" stroke-width="2" d="M298,-104.84C298,-90.84 298,-71.17 298,-52.78"/>
<polygon fill="#142b30" stroke="#142b30" stroke-width="2" points="298,-45 301.38,-52.5 298.5,-48.75 298.5,-52.5 298,-52.5 297.5,-52.5 297.5,-48.75 294.63,-52.5 298,-45 298,-45"/>
</g>
<!-- A6 -->
<g id="node6" class="node">
<title>A6</title>
<path fill="none" stroke="#104e8b" d="M989,-403C989,-403 869,-403 869,-403 863,-403 857,-397 857,-391 857,-391 857,-325 857,-325 857,-319 863,-313 869,-313 869,-313 989,-313 989,-313 995,-313 1001,-319 1001,-325 1001,-325 1001,-391 1001,-391 1001,-397 995,-403 989,-403"/>
<text text-anchor="start" x="871.99" y="-376.8" font-family="Arial" font-weight="bold" font-size="18.00">Departamento</text>
<text text-anchor="start" x="885.89" y="-347.6" font-family="Arial" font-size="16.00">Recruitment</text>
<text text-anchor="start" x="906.76" y="-328.4" font-family="Arial" font-size="16.00">50000</text>
</g>
<!-- B7 -->
<g id="node7" class="node">
<title>B7</title>
<path fill="none" stroke="#104e8b" d="M827,-277C827,-277 707,-277 707,-277 701,-277 695,-271 695,-265 695,-265 695,-214 695,-214 695,-208 701,-202 707,-202 707,-202 827,-202 827,-202 833,-202 839,-208 839,-214 839,-214 839,-265 839,-265 839,-271 833,-277 827,-277"/>
<text text-anchor="start" x="745.71" y="-253.9" font-family="Arial" font-weight="bold" font-size="14.00">Puesto</text>
<text text-anchor="start" x="752.83" y="-229.7" font-family="Arial" font-size="12.00">JEFE</text>
<text text-anchor="start" x="750.82" y="-215.3" font-family="Arial" font-size="12.00">30000</text>
</g>
<!-- A6&#45;&gt;B7 -->
<g id="edge5" class="edge">
<title>A6&#45;&gt;B7:n</title>
<path fill="none" stroke="#142b30" stroke-width="2" d="M856.53,-349.07C816.09,-340.44 772.79,-322.42 767.53,-284.79"/>
<polygon fill="#142b30" stroke="#142b30" stroke-width="2" points="767,-277 770.88,-284.25 767.75,-280.71 768.01,-284.45 767.51,-284.48 767.01,-284.52 766.76,-280.78 764.14,-284.71 767,-277 767,-277"/>
</g>
<!-- B12 -->
<g id="node13" class="node">
<title>B12</title>
<path fill="none" stroke="#104e8b" d="M1151,-277C1151,-277 1031,-277 1031,-277 1025,-277 1019,-271 1019,-265 1019,-265 1019,-214 1019,-214 1019,-208 1025,-202 1031,-202 1031,-202 1151,-202 1151,-202 1157,-202 1163,-208 1163,-214 1163,-214 1163,-265 1163,-265 1163,-271 1157,-277 1151,-277"/>
<text text-anchor="start" x="1069.71" y="-253.9" font-family="Arial" font-weight="bold" font-size="14.00">Puesto</text>
<text text-anchor="start" x="1071.16" y="-229.7" font-family="Arial" font-size="12.00">Trainee</text>
<text text-anchor="start" x="1074.82" y="-215.3" font-family="Arial" font-size="12.00">10000</text>
</g>
<!-- A6&#45;&gt;B12 -->
<g id="edge11" class="edge">
<title>A6&#45;&gt;B12:n</title>
<path fill="none" stroke="#142b30" stroke-width="2" d="M1001.47,-349.07C1041.91,-340.44 1085.21,-322.42 1090.47,-284.79"/>
<polygon fill="#142b30" stroke="#142b30" stroke-width="2" points="1091,-277 1093.86,-284.71 1091.24,-280.78 1090.99,-284.52 1090.49,-284.48 1089.99,-284.45 1090.25,-280.71 1087.12,-284.25 1091,-277 1091,-277"/>
</g>
<!-- C8 -->
<g id="node8" class="node">
<title>C8</title>
<path fill="none" stroke="#104e8b" d="M584,-166C584,-166 464,-166 464,-166 458,-166 452,-160 452,-154 452,-154 452,-96 452,-96 452,-90 458,-84 464,-84 464,-84 584,-84 584,-84 590,-84 596,-90 596,-96 596,-96 596,-154 596,-154 596,-160 590,-166 584,-166"/>
<text text-anchor="start" x="495" y="-150.2" font-family="Arial" font-weight="bold" font-size="12.00">Categorias</text>
<text text-anchor="start" x="495" y="-136" font-family="Arial" font-weight="bold" font-size="10.00">&#45; </text>
<text text-anchor="start" x="501.11" y="-136" font-family="Arial" font-size="10.00">dinero</text>
<text text-anchor="start" x="495" y="-122" font-family="Arial" font-weight="bold" font-size="10.00">&#45; </text>
<text text-anchor="start" x="501.11" y="-122" font-family="Arial" font-size="10.00">exito</text>
<text text-anchor="start" x="495" y="-108" font-family="Arial" font-weight="bold" font-size="10.00">&#45; </text>
<text text-anchor="start" x="501.11" y="-108" font-family="Arial" font-size="10.00">humano</text>
<text text-anchor="start" x="495" y="-94" font-family="Arial" font-weight="bold" font-size="10.00">&#45; </text>
<text text-anchor="start" x="501.11" y="-94" font-family="Arial" font-size="10.00">social</text>
</g>
<!-- B7&#45;&gt;C8 -->
<g id="edge6" class="edge">
<title>B7&#45;&gt;C8:n</title>
<path fill="none" stroke="#142b30" stroke-width="2" d="M694.75,-231.04C628.44,-222.28 538.56,-204.84 525.59,-173.75"/>
<polygon fill="#142b30" stroke="#142b30" stroke-width="2" points="524,-166 528.81,-172.67 525.24,-169.57 525.99,-173.25 525.5,-173.35 525.02,-173.45 524.26,-169.77 522.2,-174.02 524,-166 524,-166"/>
</g>
<!-- D9 -->
<g id="node9" class="node">
<title>D9</title>
<path fill="none" stroke="#104e8b" d="M746,-145C746,-145 626,-145 626,-145 620,-145 614,-139 614,-133 614,-133 614,-117 614,-117 614,-111 620,-105 626,-105 626,-105 746,-105 746,-105 752,-105 758,-111 758,-117 758,-117 758,-133 758,-133 758,-139 752,-145 746,-145"/>
<text text-anchor="start" x="655" y="-129.2" font-family="Arial" font-weight="bold" font-size="12.00">Requisito</text>
<text text-anchor="start" x="654.83" y="-114" font-family="Arial" font-size="10.00">Gusto musical</text>
</g>
<!-- B7&#45;&gt;D9 -->
<g id="edge7" class="edge">
<title>B7&#45;&gt;D9:n</title>
<path fill="none" stroke="#142b30" stroke-width="2" d="M714.33,-201.99C700.67,-188.65 689.05,-172.2 686.51,-153.54"/>
<polygon fill="#142b30" stroke="#142b30" stroke-width="2" points="686,-146 689.88,-153.25 686.75,-149.71 687.01,-153.45 686.51,-153.48 686.01,-153.52 685.76,-149.78 683.14,-153.71 686,-146 686,-146"/>
</g>
<!-- D11 -->
<g id="node11" class="node">
<title>D11</title>
<path fill="none" stroke="#104e8b" d="M908,-145C908,-145 788,-145 788,-145 782,-145 776,-139 776,-133 776,-133 776,-117 776,-117 776,-111 782,-105 788,-105 788,-105 908,-105 908,-105 914,-105 920,-111 920,-117 920,-117 920,-133 920,-133 920,-139 914,-145 908,-145"/>
<text text-anchor="start" x="823" y="-129.2" font-family="Arial" font-weight="bold" font-size="12.00">Requisito</text>
<text text-anchor="start" x="823" y="-114" font-family="Arial" font-size="10.00">Pasaporte</text>
</g>
<!-- B7&#45;&gt;D11 -->
<g id="edge9" class="edge">
<title>B7&#45;&gt;D11:n</title>
<path fill="none" stroke="#142b30" stroke-width="2" d="M819.67,-201.99C833.33,-188.65 844.95,-172.2 847.49,-153.54"/>
<polygon fill="#142b30" stroke="#142b30" stroke-width="2" points="848,-146 850.86,-153.71 848.24,-149.78 847.99,-153.52 847.49,-153.48 846.99,-153.45 847.25,-149.71 844.12,-153.25 848,-146 848,-146"/>
</g>
<!-- E10 -->
<g id="node10" class="node">
<title>E10</title>
<path fill="none" stroke="#104e8b" d="M746,-48C746,-48 626,-48 626,-48 620,-48 614,-42 614,-36 614,-36 614,-12 614,-12 614,-6 620,0 626,0 626,0 746,0 746,0 752,0 758,-6 758,-12 758,-12 758,-36 758,-36 758,-42 752,-48 746,-48"/>
<text text-anchor="start" x="669.61" y="-35.8" font-family="Arial" font-weight="bold" font-size="8.00">Formatos</text>
<text text-anchor="start" x="670" y="-26.6" font-family="Arial" font-weight="bold" font-size="6.00">&#45; </text>
<text text-anchor="start" x="673.66" y="-26.6" font-family="Arial" font-size="6.00">mp4</text>
<text text-anchor="start" x="670" y="-17.6" font-family="Arial" font-weight="bold" font-size="6.00">&#45; </text>
<text text-anchor="start" x="673.66" y="-17.6" font-family="Arial" font-size="6.00">mkv</text>
<text text-anchor="start" x="670" y="-8.6" font-family="Arial" font-weight="bold" font-size="6.00">&#45; </text>
<text text-anchor="start" x="673.66" y="-8.6" font-family="Arial" font-size="6.00">mp3</text>
</g>
<!-- D9&#45;&gt;E10 -->
<g id="edge8" class="edge">
<title>D9&#45;&gt;E10:n</title>
<path fill="none" stroke="#142b30" stroke-width="2" d="M686,-104.95C686,-91.62 686,-73.17 686,-55.85"/>
<polygon fill="#142b30" stroke="#142b30" stroke-width="2" points="686,-48 689.38,-55.5 686.5,-51.75 686.5,-55.5 686,-55.5 685.5,-55.5 685.5,-51.75 682.63,-55.5 686,-48 686,-48"/>
</g>
<!-- E12 -->
<g id="node12" class="node">
<title>E12</title>
<path fill="none" stroke="#104e8b" d="M908,-43.5C908,-43.5 788,-43.5 788,-43.5 782,-43.5 776,-37.5 776,-31.5 776,-31.5 776,-16.5 776,-16.5 776,-10.5 782,-4.5 788,-4.5 788,-4.5 908,-4.5 908,-4.5 914,-4.5 920,-10.5 920,-16.5 920,-16.5 920,-31.5 920,-31.5 920,-37.5 914,-43.5 908,-43.5"/>
<text text-anchor="start" x="831.61" y="-30.8" font-family="Arial" font-weight="bold" font-size="8.00">Formatos</text>
<text text-anchor="start" x="832" y="-21.6" font-family="Arial" font-weight="bold" font-size="6.00">&#45; </text>
<text text-anchor="start" x="835.66" y="-21.6" font-family="Arial" font-size="6.00">pdf</text>
<text text-anchor="start" x="832" y="-12.6" font-family="Arial" font-weight="bold" font-size="6.00">&#45; </text>
<text text-anchor="start" x="835.66" y="-12.6" font-family="Arial" font-size="6.00">png</text>
</g>
<!-- D11&#45;&gt;E12 -->
<g id="edge10" class="edge">
<title>D11&#45;&gt;E12:n</title>
<path fill="none" stroke="#142b30" stroke-width="2" d="M848,-104.84C848,-90.84 848,-71.17 848,-52.78"/>
<polygon fill="#142b30" stroke="#142b30" stroke-width="2" points="848,-45 851.38,-52.5 848.5,-48.75 848.5,-52.5 848,-52.5 847.5,-52.5 847.5,-48.75 844.63,-52.5 848,-45 848,-45"/>
</g>
<!-- C13 -->
<g id="node14" class="node">
<title>C13</title>
<path fill="none" stroke="#104e8b" d="M1070,-166C1070,-166 950,-166 950,-166 944,-166 938,-160 938,-154 938,-154 938,-96 938,-96 938,-90 944,-84 950,-84 950,-84 1070,-84 1070,-84 1076,-84 1082,-90 1082,-96 1082,-96 1082,-154 1082,-154 1082,-160 1076,-166 1070,-166"/>
<text text-anchor="start" x="981" y="-150.2" font-family="Arial" font-weight="bold" font-size="12.00">Categorias</text>
<text text-anchor="start" x="981" y="-136" font-family="Arial" font-weight="bold" font-size="10.00">&#45; </text>
<text text-anchor="start" x="987.11" y="-136" font-family="Arial" font-size="10.00">danza</text>
<text text-anchor="start" x="981" y="-122" font-family="Arial" font-weight="bold" font-size="10.00">&#45; </text>
<text text-anchor="start" x="987.11" y="-122" font-family="Arial" font-size="10.00">dinero</text>
<text text-anchor="start" x="981" y="-108" font-family="Arial" font-weight="bold" font-size="10.00">&#45; </text>
<text text-anchor="start" x="987.11" y="-108" font-family="Arial" font-size="10.00">fama</text>
<text text-anchor="start" x="981" y="-94" font-family="Arial" font-weight="bold" font-size="10.00">&#45; </text>
<text text-anchor="start" x="987.11" y="-94" font-family="Arial" font-size="10.00">musica</text>
</g>
<!-- B12&#45;&gt;C13 -->
<g id="edge12" class="edge">
<title>B12&#45;&gt;C13:n</title>
<path fill="none" stroke="#142b30" stroke-width="2" d="M1026.39,-201.85C1018.57,-193.78 1012.64,-184.38 1010.69,-173.64"/>
<polygon fill="#142b30" stroke="#142b30" stroke-width="2" points="1010,-166 1014.03,-173.17 1010.83,-169.69 1011.17,-173.42 1010.67,-173.47 1010.17,-173.51 1009.84,-169.78 1007.31,-173.77 1010,-166 1010,-166"/>
</g>
<!-- D14 -->
<g id="node15" class="node">
<title>D14</title>
<path fill="none" stroke="#104e8b" d="M1232,-145C1232,-145 1112,-145 1112,-145 1106,-145 1100,-139 1100,-133 1100,-133 1100,-117 1100,-117 1100,-111 1106,-105 1112,-105 1112,-105 1232,-105 1232,-105 1238,-105 1244,-111 1244,-117 1244,-117 1244,-133 1244,-133 1244,-139 1238,-145 1232,-145"/>
<text text-anchor="start" x="1127" y="-129.2" font-family="Arial" font-weight="bold" font-size="12.00">Requisito</text>
<text text-anchor="start" x="1126.65" y="-114" font-family="Arial" font-size="10.00">Certificado en danza</text>
</g>
<!-- B12&#45;&gt;D14 -->
<g id="edge13" class="edge">
<title>B12&#45;&gt;D14:n</title>
<path fill="none" stroke="#142b30" stroke-width="2" d="M1143.67,-201.99C1157.33,-188.65 1168.95,-172.2 1171.49,-153.54"/>
<polygon fill="#142b30" stroke="#142b30" stroke-width="2" points="1172,-146 1174.86,-153.71 1172.24,-149.78 1171.99,-153.52 1171.49,-153.48 1170.99,-153.45 1171.25,-149.71 1168.12,-153.25 1172,-146 1172,-146"/>
</g>
<!-- D16 -->
<g id="node17" class="node">
<title>D16</title>
<path fill="none" stroke="#104e8b" d="M1394,-145C1394,-145 1274,-145 1274,-145 1268,-145 1262,-139 1262,-133 1262,-133 1262,-117 1262,-117 1262,-111 1268,-105 1274,-105 1274,-105 1394,-105 1394,-105 1400,-105 1406,-111 1406,-117 1406,-117 1406,-133 1406,-133 1406,-139 1400,-145 1394,-145"/>
<text text-anchor="start" x="1301" y="-129.2" font-family="Arial" font-weight="bold" font-size="12.00">Requisito</text>
<text text-anchor="start" x="1300.66" y="-114" font-family="Arial" font-size="10.00">Album de fotos</text>
</g>
<!-- B12&#45;&gt;D16 -->
<g id="edge15" class="edge">
<title>B12&#45;&gt;D16:n</title>
<path fill="none" stroke="#142b30" stroke-width="2" d="M1163.25,-225.45C1229.84,-211.46 1320.2,-186.71 1332.57,-153.64"/>
<polygon fill="#142b30" stroke="#142b30" stroke-width="2" points="1334,-146 1335.94,-153.99 1333.8,-149.78 1333.12,-153.46 1332.62,-153.37 1332.13,-153.28 1332.82,-149.59 1329.31,-152.75 1334,-146 1334,-146"/>
</g>
<!-- E15 -->
<g id="node16" class="node">
<title>E15</title>
<path fill="none" stroke="#104e8b" d="M1232,-48C1232,-48 1112,-48 1112,-48 1106,-48 1100,-42 1100,-36 1100,-36 1100,-12 1100,-12 1100,-6 1106,0 1112,0 1112,0 1232,0 1232,0 1238,0 1244,-6 1244,-12 1244,-12 1244,-36 1244,-36 1244,-42 1238,-48 1232,-48"/>
<text text-anchor="start" x="1155.61" y="-35.8" font-family="Arial" font-weight="bold" font-size="8.00">Formatos</text>
<text text-anchor="start" x="1156" y="-26.6" font-family="Arial" font-weight="bold" font-size="6.00">&#45; </text>
<text text-anchor="start" x="1159.66" y="-26.6" font-family="Arial" font-size="6.00">jpg</text>
<text text-anchor="start" x="1156" y="-17.6" font-family="Arial" font-weight="bold" font-size="6.00">&#45; </text>
<text text-anchor="start" x="1159.66" y="-17.6" font-family="Arial" font-size="6.00">png</text>
<text text-anchor="start" x="1156" y="-8.6" font-family="Arial" font-weight="bold" font-size="6.00">&#45; </text>
<text text-anchor="start" x="1159.66" y="-8.6" font-family="Arial" font-size="6.00">pdf</text>
</g>
<!-- D14&#45;&gt;E15 -->
<g id="edge14" class="edge">
<title>D14&#45;&gt;E15:n</title>
<path fill="none" stroke="#142b30" stroke-width="2" d="M1172,-104.95C1172,-91.62 1172,-73.17 1172,-55.85"/>
<polygon fill="#142b30" stroke="#142b30" stroke-width="2" points="1172,-48 1175.38,-55.5 1172.5,-51.75 1172.5,-55.5 1172,-55.5 1171.5,-55.5 1171.5,-51.75 1168.63,-55.5 1172,-48 1172,-48"/>
</g>
<!-- E17 -->
<g id="node18" class="node">
<title>E17</title>
<path fill="none" stroke="#104e8b" d="M1394,-48C1394,-48 1274,-48 1274,-48 1268,-48 1262,-42 1262,-36 1262,-36 1262,-12 1262,-12 1262,-6 1268,0 1274,0 1274,0 1394,0 1394,0 1400,0 1406,-6 1406,-12 1406,-12 1406,-36 1406,-36 1406,-42 1400,-48 1394,-48"/>
<text text-anchor="start" x="1317.61" y="-35.8" font-family="Arial" font-weight="bold" font-size="8.00">Formatos</text>
<text text-anchor="start" x="1318" y="-26.6" font-family="Arial" font-weight="bold" font-size="6.00">&#45; </text>
<text text-anchor="start" x="1321.66" y="-26.6" font-family="Arial" font-size="6.00">png</text>
<text text-anchor="start" x="1318" y="-17.6" font-family="Arial" font-weight="bold" font-size="6.00">&#45; </text>
<text text-anchor="start" x="1321.66" y="-17.6" font-family="Arial" font-size="6.00">jpg</text>
<text text-anchor="start" x="1318" y="-8.6" font-family="Arial" font-weight="bold" font-size="6.00">&#45; </text>
<text text-anchor="start" x="1321.66" y="-8.6" font-family="Arial" font-size="6.00">jpeg</text>
</g>
<!-- D16&#45;&gt;E17 -->
<g id="edge16" class="edge">
<title>D16&#45;&gt;E17:n</title>
<path fill="none" stroke="#142b30" stroke-width="2" d="M1334,-104.95C1334,-91.62 1334,-73.17 1334,-55.85"/>
<polygon fill="#142b30" stroke="#142b30" stroke-width="2" points="1334,-48 1337.38,-55.5 1334.5,-51.75 1334.5,-55.5 1334,-55.5 1333.5,-55.5 1333.5,-51.75 1330.63,-55.5 1334,-48 1334,-48"/>
</g>
<!-- A18 -->
<g id="node19" class="node">
<title>A18</title>
<path fill="none" stroke="#104e8b" d="M1741,-403C1741,-403 1621,-403 1621,-403 1615,-403 1609,-397 1609,-391 1609,-391 1609,-325 1609,-325 1609,-319 1615,-313 1621,-313 1621,-313 1741,-313 1741,-313 1747,-313 1753,-319 1753,-325 1753,-325 1753,-391 1753,-391 1753,-397 1747,-403 1741,-403"/>
<text text-anchor="start" x="1623.99" y="-376.8" font-family="Arial" font-weight="bold" font-size="18.00">Departamento</text>
<text text-anchor="start" x="1631.22" y="-347.6" font-family="Arial" font-size="16.00">musical group</text>
<text text-anchor="start" x="1654.32" y="-328.4" font-family="Arial" font-size="16.00">100000</text>
</g>
<!-- B19 -->
<g id="node20" class="node">
<title>B19</title>
<path fill="none" stroke="#104e8b" d="M1741,-277C1741,-277 1621,-277 1621,-277 1615,-277 1609,-271 1609,-265 1609,-265 1609,-214 1609,-214 1609,-208 1615,-202 1621,-202 1621,-202 1741,-202 1741,-202 1747,-202 1753,-208 1753,-214 1753,-214 1753,-265 1753,-265 1753,-271 1747,-277 1741,-277"/>
<text text-anchor="start" x="1659.71" y="-253.9" font-family="Arial" font-weight="bold" font-size="14.00">Puesto</text>
<text text-anchor="start" x="1661.83" y="-229.7" font-family="Arial" font-size="12.00">Rapper</text>
<text text-anchor="start" x="1664.82" y="-215.3" font-family="Arial" font-size="12.00">60000</text>
</g>
<!-- A18&#45;&gt;B19 -->
<g id="edge17" class="edge">
<title>A18&#45;&gt;B19:n</title>
<path fill="none" stroke="#142b30" stroke-width="2" d="M1681,-312.99C1681,-303.85 1681,-294.15 1681,-284.77"/>
<polygon fill="#142b30" stroke="#142b30" stroke-width="2" points="1681,-277 1684.38,-284.5 1681.5,-280.75 1681.5,-284.5 1681,-284.5 1680.5,-284.5 1680.5,-280.75 1677.63,-284.5 1681,-277 1681,-277"/>
</g>
<!-- C20 -->
<g id="node21" class="node">
<title>C20</title>
<path fill="none" stroke="#104e8b" d="M1556,-159C1556,-159 1436,-159 1436,-159 1430,-159 1424,-153 1424,-147 1424,-147 1424,-103 1424,-103 1424,-97 1430,-91 1436,-91 1436,-91 1556,-91 1556,-91 1562,-91 1568,-97 1568,-103 1568,-103 1568,-147 1568,-147 1568,-153 1562,-159 1556,-159"/>
<text text-anchor="start" x="1467" y="-143.2" font-family="Arial" font-weight="bold" font-size="12.00">Categorias</text>
<text text-anchor="start" x="1467" y="-129" font-family="Arial" font-weight="bold" font-size="10.00">&#45; </text>
<text text-anchor="start" x="1473.11" y="-129" font-family="Arial" font-size="10.00">cool</text>
<text text-anchor="start" x="1467" y="-115" font-family="Arial" font-weight="bold" font-size="10.00">&#45; </text>
<text text-anchor="start" x="1473.11" y="-115" font-family="Arial" font-size="10.00">fama</text>
<text text-anchor="start" x="1467" y="-101" font-family="Arial" font-weight="bold" font-size="10.00">&#45; </text>
<text text-anchor="start" x="1473.11" y="-101" font-family="Arial" font-size="10.00">musica</text>
</g>
<!-- B19&#45;&gt;C20 -->
<g id="edge18" class="edge">
<title>B19&#45;&gt;C20:n</title>
<path fill="none" stroke="#142b30" stroke-width="2" d="M1608.94,-235.82C1559.64,-229.88 1502.17,-213.11 1496.46,-167.56"/>
<polygon fill="#142b30" stroke="#142b30" stroke-width="2" points="1496,-160 1499.83,-167.28 1496.73,-163.71 1496.96,-167.46 1496.46,-167.49 1495.96,-167.52 1495.73,-163.77 1493.09,-167.69 1496,-160 1496,-160"/>
</g>
<!-- D21 -->
<g id="node22" class="node">
<title>D21</title>
<path fill="none" stroke="#104e8b" d="M1764,-145C1764,-145 1598,-145 1598,-145 1592,-145 1586,-139 1586,-133 1586,-133 1586,-117 1586,-117 1586,-111 1592,-105 1598,-105 1598,-105 1764,-105 1764,-105 1770,-105 1776,-111 1776,-117 1776,-117 1776,-133 1776,-133 1776,-139 1770,-145 1764,-145"/>
<text text-anchor="start" x="1596" y="-129.2" font-family="Arial" font-weight="bold" font-size="12.00">Requisito</text>
<text text-anchor="start" x="1595.7" y="-114" font-family="Arial" font-size="10.00">Video de audicion, 4 versos a eleccion</text>
</g>
<!-- B19&#45;&gt;D21 -->
<g id="edge19" class="edge">
<title>B19&#45;&gt;D21:n</title>
<path fill="none" stroke="#142b30" stroke-width="2" d="M1681,-201.59C1681,-187.03 1681,-169.96 1681,-153.83"/>
<polygon fill="#142b30" stroke="#142b30" stroke-width="2" points="1681,-146 1684.38,-153.5 1681.5,-149.75 1681.5,-153.5 1681,-153.5 1680.5,-153.5 1680.5,-149.75 1677.63,-153.5 1681,-146 1681,-146"/>
</g>
<!-- D23 -->
<g id="node24" class="node">
<title>D23</title>
<path fill="none" stroke="#104e8b" d="M1926,-145C1926,-145 1806,-145 1806,-145 1800,-145 1794,-139 1794,-133 1794,-133 1794,-117 1794,-117 1794,-111 1800,-105 1806,-105 1806,-105 1926,-105 1926,-105 1932,-105 1938,-111 1938,-117 1938,-117 1938,-133 1938,-133 1938,-139 1932,-145 1926,-145"/>
<text text-anchor="start" x="1819" y="-129.2" font-family="Arial" font-weight="bold" font-size="12.00">Requisito</text>
<text text-anchor="start" x="1818.77" y="-114" font-family="Arial" font-size="10.00">Certificado de lectura</text>
</g>
<!-- B19&#45;&gt;D23 -->
<g id="edge21" class="edge">
<title>B19&#45;&gt;D23:n</title>
<path fill="none" stroke="#142b30" stroke-width="2" d="M1753.06,-231.18C1802.46,-221.93 1860.06,-200.97 1865.57,-153.52"/>
<polygon fill="#142b30" stroke="#142b30" stroke-width="2" points="1866,-146 1868.94,-153.68 1866.29,-149.77 1866.07,-153.52 1865.57,-153.49 1865.07,-153.46 1865.29,-149.72 1862.2,-153.3 1866,-146 1866,-146"/>
</g>
<!-- E22 -->
<g id="node23" class="node">
<title>E22</title>
<path fill="none" stroke="#104e8b" d="M1741,-48C1741,-48 1621,-48 1621,-48 1615,-48 1609,-42 1609,-36 1609,-36 1609,-12 1609,-12 1609,-6 1615,0 1621,0 1621,0 1741,0 1741,0 1747,0 1753,-6 1753,-12 1753,-12 1753,-36 1753,-36 1753,-42 1747,-48 1741,-48"/>
<text text-anchor="start" x="1664.61" y="-35.8" font-family="Arial" font-weight="bold" font-size="8.00">Formatos</text>
<text text-anchor="start" x="1665" y="-26.6" font-family="Arial" font-weight="bold" font-size="6.00">&#45; </text>
<text text-anchor="start" x="1668.66" y="-26.6" font-family="Arial" font-size="6.00">wmv</text>
<text text-anchor="start" x="1665" y="-17.6" font-family="Arial" font-weight="bold" font-size="6.00">&#45; </text>
<text text-anchor="start" x="1668.66" y="-17.6" font-family="Arial" font-size="6.00">mkv</text>
<text text-anchor="start" x="1665" y="-8.6" font-family="Arial" font-weight="bold" font-size="6.00">&#45; </text>
<text text-anchor="start" x="1668.66" y="-8.6" font-family="Arial" font-size="6.00">mp4</text>
</g>
<!-- D21&#45;&gt;E22 -->
<g id="edge20" class="edge">
<title>D21&#45;&gt;E22:n</title>
<path fill="none" stroke="#142b30" stroke-width="2" d="M1681,-104.95C1681,-91.62 1681,-73.17 1681,-55.85"/>
<polygon fill="#142b30" stroke="#142b30" stroke-width="2" points="1681,-48 1684.38,-55.5 1681.5,-51.75 1681.5,-55.5 1681,-55.5 1680.5,-55.5 1680.5,-51.75 1677.63,-55.5 1681,-48 1681,-48"/>
</g>
<!-- E24 -->
<g id="node25" class="node">
<title>E24</title>
<path fill="none" stroke="#104e8b" d="M1926,-42C1926,-42 1806,-42 1806,-42 1800,-42 1794,-36 1794,-30 1794,-30 1794,-18 1794,-18 1794,-12 1800,-6 1806,-6 1806,-6 1926,-6 1926,-6 1932,-6 1938,-12 1938,-18 1938,-18 1938,-30 1938,-30 1938,-36 1932,-42 1926,-42"/>
<text text-anchor="start" x="1849.61" y="-26.8" font-family="Arial" font-weight="bold" font-size="8.00">Formatos</text>
<text text-anchor="start" x="1850" y="-17.6" font-family="Arial" font-weight="bold" font-size="6.00">&#45; </text>
<text text-anchor="start" x="1853.66" y="-17.6" font-family="Arial" font-size="6.00">pdf</text>
</g>
<!-- D23&#45;&gt;E24 -->
<g id="edge22" class="edge">
<title>D23&#45;&gt;E24:n</title>
<path fill="none" stroke="#142b30" stroke-width="2" d="M1866,-104.69C1866,-90.2 1866,-69.66 1866,-50.53"/>
<polygon fill="#142b30" stroke="#142b30" stroke-width="2" points="1866,-43 1869.38,-50.5 1866.5,-46.75 1866.5,-50.5 1866,-50.5 1865.5,-50.5 1865.5,-46.75 1862.63,-50.5 1866,-43 1866,-43"/>
</g>
</g>
</svg>
