<?xml version="1.0" encoding="UTF-8" standalone="no"?>
<!DOCTYPE svg PUBLIC "-//W3C//DTD SVG 1.1//EN"
 "http://www.w3.org/Graphics/SVG/1.1/DTD/svg11.dtd">
<!-- Generated by graphviz version 2.44.0 (20200518.1210)
 -->
<!-- Title: G Pages: 1 -->
<svg width="522pt" height="397pt"
 viewBox="0.00 0.00 522.00 397.00" xmlns="http://www.w3.org/2000/svg" xmlns:xlink="http://www.w3.org/1999/xlink">
<g id="graph0" class="graph" transform="scale(1 1) rotate(0) translate(4 393)">
<title>G</title>
<polygon fill="white" stroke="transparent" points="-4,4 -4,-393 518,-393 518,4 -4,4"/>
<!-- A1 -->
<g id="node1" class="node">
<title>A1</title>
<path fill="none" stroke="#104e8b" d="M317,-389C317,-389 197,-389 197,-389 191,-389 185,-383 185,-377 185,-377 185,-311 185,-311 185,-305 191,-299 197,-299 197,-299 317,-299 317,-299 323,-299 329,-305 329,-311 329,-311 329,-377 329,-377 329,-383 323,-389 317,-389"/>
<text text-anchor="start" x="199.99" y="-362.8" font-family="Arial" font-weight="bold" font-size="18.00">Departamento</text>
<text text-anchor="start" x="207.22" y="-333.6" font-family="Arial" font-size="16.00">musical group</text>
<text text-anchor="start" x="230.32" y="-314.4" font-family="Arial" font-size="16.00">100000</text>
</g>
<!-- B2 -->
<g id="node2" class="node">
<title>B2</title>
<path fill="none" stroke="#104e8b" d="M317,-263C317,-263 197,-263 197,-263 191,-263 185,-257 185,-251 185,-251 185,-200 185,-200 185,-194 191,-188 197,-188 197,-188 317,-188 317,-188 323,-188 329,-194 329,-200 329,-200 329,-251 329,-251 329,-257 323,-263 317,-263"/>
<text text-anchor="start" x="235.71" y="-239.9" font-family="Arial" font-weight="bold" font-size="14.00">Puesto</text>
<text text-anchor="start" x="237.83" y="-215.7" font-family="Arial" font-size="12.00">Rapper</text>
<text text-anchor="start" x="240.82" y="-201.3" font-family="Arial" font-size="12.00">60000</text>
</g>
<!-- A1&#45;&gt;B2 -->
<g id="edge1" class="edge">
<title>A1&#45;&gt;B2:n</title>
<path fill="none" stroke="#142b30" stroke-width="2" d="M257,-298.99C257,-289.85 257,-280.15 257,-270.77"/>
<polygon fill="#142b30" stroke="#142b30" stroke-width="2" points="257,-263 260.38,-270.5 257.5,-266.75 257.5,-270.5 257,-270.5 256.5,-270.5 256.5,-266.75 253.63,-270.5 257,-263 257,-263"/>
</g>
<!-- C3 -->
<g id="node3" class="node">
<title>C3</title>
<path fill="none" stroke="#104e8b" d="M132,-152C132,-152 12,-152 12,-152 6,-152 0,-146 0,-140 0,-140 0,-96 0,-96 0,-90 6,-84 12,-84 12,-84 132,-84 132,-84 138,-84 144,-90 144,-96 144,-96 144,-140 144,-140 144,-146 138,-152 132,-152"/>
<text text-anchor="start" x="43" y="-136.2" font-family="Arial" font-weight="bold" font-size="12.00">Categorias</text>
<text text-anchor="start" x="43" y="-122" font-family="Arial" font-weight="bold" font-size="10.00">&#45; </text>
<text text-anchor="start" x="49.11" y="-122" font-family="Arial" font-size="10.00">cool</text>
<text text-anchor="start" x="43" y="-108" font-family="Arial" font-weight="bold" font-size="10.00">&#45; </text>
<text text-anchor="start" x="49.11" y="-108" font-family="Arial" font-size="10.00">fama</text>
<text text-anchor="start" x="43" y="-94" font-family="Arial" font-weight="bold" font-size="10.00">&#45; </text>
<text text-anchor="start" x="49.11" y="-94" font-family="Arial" font-size="10.00">musica</text>
</g>
<!-- B2&#45;&gt;C3 -->
<g id="edge2" class="edge">
<title>B2&#45;&gt;C3:n</title>
<path fill="none" stroke="#142b30" stroke-width="2" d="M184.94,-210.05C138.28,-198.77 84.3,-181.37 73.81,-159.56"/>
<polygon fill="#142b30" stroke="#142b30" stroke-width="2" points="72,-152 77.03,-158.51 73.36,-155.53 74.24,-159.18 73.75,-159.29 73.26,-159.41 72.39,-155.76 70.47,-160.08 72,-152 72,-152"/>
</g>
<!-- D4 -->
<g id="node4" class="node">
<title>D4</title>
<path fill="none" stroke="#104e8b" d="M340,-138C340,-138 174,-138 174,-138 168,-138 162,-132 162,-126 162,-126 162,-110 162,-110 162,-104 168,-98 174,-98 174,-98 340,-98 340,-98 346,-98 352,-104 352,-110 352,-110 352,-126 352,-126 352,-132 346,-138 340,-138"/>
<text text-anchor="start" x="172" y="-122.2" font-family="Arial" font-weight="bold" font-size="12.00">Requisito</text>
<text text-anchor="start" x="171.7" y="-107" font-family="Arial" font-size="10.00">Video de audicion, 4 versos a eleccion</text>
</g>
<!-- B2&#45;&gt;D4 -->
<g id="edge3" class="edge">
<title>B2&#45;&gt;D4:n</title>
<path fill="none" stroke="#142b30" stroke-width="2" d="M257,-187.89C257,-175.12 257,-160.51 257,-146.62"/>
<polygon fill="#142b30" stroke="#142b30" stroke-width="2" points="257,-139 260.38,-146.5 257.5,-142.75 257.5,-146.5 257,-146.5 256.5,-146.5 256.5,-142.75 253.63,-146.5 257,-139 257,-139"/>
</g>
<!-- D6 -->
<g id="node6" class="node">
<title>D6</title>
<path fill="none" stroke="#104e8b" d="M502,-138C502,-138 382,-138 382,-138 376,-138 370,-132 370,-126 370,-126 370,-110 370,-110 370,-104 376,-98 382,-98 382,-98 502,-98 502,-98 508,-98 514,-104 514,-110 514,-110 514,-126 514,-126 514,-132 508,-138 502,-138"/>
<text text-anchor="start" x="395" y="-122.2" font-family="Arial" font-weight="bold" font-size="12.00">Requisito</text>
<text text-anchor="start" x="394.77" y="-107" font-family="Arial" font-size="10.00">Certificado de lectura</text>
</g>
<!-- B2&#45;&gt;D6 -->
<g id="edge5" class="edge">
<title>B2&#45;&gt;D6:n</title>
<path fill="none" stroke="#142b30" stroke-width="2" d="M329.06,-219.49C378.36,-211.89 435.83,-193.06 441.54,-146.68"/>
<polygon fill="#142b30" stroke="#142b30" stroke-width="2" points="442,-139 444.92,-146.69 442.27,-142.77 442.05,-146.52 441.55,-146.49 441.05,-146.46 441.28,-142.71 438.18,-146.28 442,-139 442,-139"/>
</g>
<!-- E5 -->
<g id="node5" class="node">
<title>E5</title>
<path fill="none" stroke="#104e8b" d="M317,-48C317,-48 197,-48 197,-48 191,-48 185,-42 185,-36 185,-36 185,-12 185,-12 185,-6 191,0 197,0 197,0 317,0 317,0 323,0 329,-6 329,-12 329,-12 329,-36 329,-36 329,-42 323,-48 317,-48"/>
<text text-anchor="start" x="240.61" y="-35.8" font-family="Arial" font-weight="bold" font-size="8.00">Formatos</text>
<text text-anchor="start" x="241" y="-26.6" font-family="Arial" font-weight="bold" font-size="6.00">&#45; </text>
<text text-anchor="start" x="244.66" y="-26.6" font-family="Arial" font-size="6.00">wmv</text>
<text text-anchor="start" x="241" y="-17.6" font-family="Arial" font-weight="bold" font-size="6.00">&#45; </text>
<text text-anchor="start" x="244.66" y="-17.6" font-family="Arial" font-size="6.00">mkv</text>
<text text-anchor="start" x="241" y="-8.6" font-family="Arial" font-weight="bold" font-size="6.00">&#45; </text>
<text text-anchor="start" x="244.66" y="-8.6" font-family="Arial" font-size="6.00">mp4</text>
</g>
<!-- D4&#45;&gt;E5 -->
<g id="edge4" class="edge">
<title>D4&#45;&gt;E5:n</title>
<path fill="none" stroke="#142b30" stroke-width="2" d="M257,-97.96C257,-86.16 257,-70.48 257,-55.65"/>
<polygon fill="#142b30" stroke="#142b30" stroke-width="2" points="257,-48 260.38,-55.5 257.5,-51.75 257.5,-55.5 257,-55.5 256.5,-55.5 256.5,-51.75 253.63,-55.5 257,-48 257,-48"/>
</g>
<!-- E7 -->
<g id="node7" class="node">
<title>E7</title>
<path fill="none" stroke="#104e8b" d="M502,-42C502,-42 382,-42 382,-42 376,-42 370,-36 370,-30 370,-30 370,-18 370,-18 370,-12 376,-6 382,-6 382,-6 502,-6 502,-6 508,-6 514,-12 514,-18 514,-18 514,-30 514,-30 514,-36 508,-42 502,-42"/>
<text text-anchor="start" x="425.61" y="-26.8" font-family="Arial" font-weight="bold" font-size="8.00">Formatos</text>
<text text-anchor="start" x="426" y="-17.6" font-family="Arial" font-weight="bold" font-size="6.00">&#45; </text>
<text text-anchor="start" x="429.66" y="-17.6" font-family="Arial" font-size="6.00">pdf</text>
</g>
<!-- D6&#45;&gt;E7 -->
<g id="edge6" class="edge">
<title>D6&#45;&gt;E7:n</title>
<path fill="none" stroke="#142b30" stroke-width="2" d="M442,-97.83C442,-84.88 442,-67.17 442,-50.54"/>
<polygon fill="#142b30" stroke="#142b30" stroke-width="2" points="442,-43 445.38,-50.5 442.5,-46.75 442.5,-50.5 442,-50.5 441.5,-50.5 441.5,-46.75 438.63,-50.5 442,-43 442,-43"/>
</g>
</g>
</svg>
